<svg xmlns="http://www.w3.org/2000/svg" width="32" height="32" fill="none" viewBox="0 0 32 32"><rect width="32" height="32" fill="#fff" rx="8"/><path fill="#6E52EF" fill-rule="evenodd" d="M6 9.78A3.78 3.78 0 0 1 9.78 6h7.72c.56 0 1.012.453 1.012 1.011v2.275a4.17 4.17 0 0 0 4.17 4.17h2.31c.532 0 .968.411 1.008.933v7.832A3.78 3.78 0 0 1 22.22 26H9.78A3.78 3.78 0 0 1 6 22.22zm16.205 9.496a7.166 7.166 0 0 1-12.41 0l2.088-1.206a4.755 4.755 0 0 0 8.234 0zM23.44 6c-.139 0-.25.114-.27.252a1.77 1.77 0 0 1-1.5 1.5c-.137.02-.251.13-.251.27v.506c0 .14.114.25.252.27a1.77 1.77 0 0 1 1.5 1.5c.019.138.13.252.27.252h.505c.14 0 .251-.114.271-.252a1.77 1.77 0 0 1 1.5-1.5c.138-.02.252-.13.252-.27v-.506c0-.14-.114-.25-.253-.27a1.77 1.77 0 0 1-1.499-1.5c-.02-.138-.131-.252-.27-.252z" clip-rule="evenodd"/></svg>