<svg xmlns="http://www.w3.org/2000/svg" xmlns:xlink="http://www.w3.org/1999/xlink" width="72" height="36" viewBox="0 0 72 36"><defs><path id="a" d="M0 0h72v36H0z"/></defs><g fill="none" fill-rule="evenodd"><mask id="b" fill="#fff"><use xlink:href="#a"/></mask><path fill="#38EF7D" d="M72 18V3.088c-3.976-4.118-10.423-4.118-14.4 0l-7.2 7.456-7.2-7.456c-3.976-4.118-10.423-4.118-14.4 0l-7.2 7.456-7.2-7.456C10.424-1.03 3.977-1.03 0 3.088V18q5.517 5.712 0 0l14.4 14.912c3.977 4.118 10.424 4.118 14.4 0l7.2-7.456 7.2 7.456c3.977 4.118 10.424 4.118 14.4 0zq-4.947 5.122 0 0" mask="url(#b)"/><path fill="#000" fill-opacity=".2" d="M57.554 17.959c-3.908-4.098-10.42-4.026-14.354.048L36 25.462l7.2 7.456a9.965 9.965 0 0 0 14.4 0L72 18.007c-3.992 4.133-10.473 4.117-14.446-.048"/><path fill="#000" fill-opacity=".1" d="M28.8 3.095 14.4 18.006c-3.976 4.118-10.423 4.118-14.4 0l14.4 14.912a9.965 9.965 0 0 0 14.4 0l14.4-14.912c3.977-4.117 10.424-4.117 14.4 0l-7.2-7.456-7.2-7.455a9.966 9.966 0 0 0-14.4 0"/></g></svg>