<svg viewBox="0 0 1024 1024" xmlns="http://www.w3.org/2000/svg" width="1em" height="1em"><path d="M0 512a512 512 0 1 0 1024 0A512 512 0 1 0 0 512z" fill="transparent"/><path d="M512 0c282.784 0 512 229.216 512 512s-229.216 512-512 512S0 794.784 0 512 229.216 0 512 0zm0 32C246.912 32 32 246.912 32 512c0 265.088 214.912 480 480 480 265.088 0 480-214.912 480-480 0-265.088-214.912-480-480-480z" fill="currentColor"/><path d="M457.6 641.664v91.296h-50.752v-82.4c-27.648 4.896-53.888 9.28-76.608 12.8L320 612.928c23.616-3.136 54.272-7.04 86.848-11.552V550.88h-32.576c-14.24 0-30.656 2.656-34.304 6.656-2.24-9.28-10.24-31.904-16.032-44.32 9.344-2.656 15.552-15.072 23.104-34.56 4.032-8.896 12.48-33.28 20.96-63.808h-44.48v-47.84h56.16c3.168-15.456 5.824-31.52 7.584-46.976l51.648 9.28c-2.656 12.832-6.208 24.864-8.96 37.696h64.992v47.84H415.2a1097.6 1097.6 0 0 1-34.72 88.64h26.24V441.92h50.752v61.568h32.96v47.456h-32.96V594.4l48.096-7.04 2.272 45.216-50.24 9.088zm278.304-143.552h-130.88c-3.552 11.936-6.72 23.488-10.24 34.56h87.328l8.064-2.656 37.376 18.56a2194.88 2194.88 0 0 1-81.536 108.544c20.064 13.696 38.24 27.008 51.232 37.696L662.528 736c-27.616-25.728-85.056-66.944-133.152-93.44l34.336-34.176c12.864 7.04 27.136 15.072 40.992 23.008 12.896-16.832 25.856-33.664 37.856-49.6H523.968c8.064-24 17.408-52.768 26.752-83.776h-54.304V449.28h68.16c3.168-11.552 5.824-22.624 8.48-34.176h-60.608v-48.32h73.088c4.032-15.968 7.584-31.52 10.72-46.08l52.512 6.144c-3.136 12.8-6.208 26.144-9.824 39.936h81.504v48.32h-93.504L617.6 449.28H736v48.832h-.096z" fill="currentColor"/></svg>