<svg viewBox="0 0 1024 1024" xmlns="http://www.w3.org/2000/svg" fill="currentColor" width="1em" height="1em"><path d="M347.335 914.653h364.749c11.185 0 20.505 9.32 20.505 20.506v20.505c0 11.185-9.32 20.506-20.505 20.506h-364.75c-11.184 0-20.505-9.321-20.505-20.506V935.16c0-11.185 9.32-20.506 20.506-20.506zm405.138-392.09c-33.554 0-60.895 27.962-60.895 62.138s27.341 62.138 60.895 62.138 60.896-27.962 60.896-62.138-27.341-62.138-60.896-62.138zm60.896-268.435c0-22.991-18.02-41.632-40.39-41.632h-486.54c-22.369 0-40.389 18.641-40.389 41.632v165.287c0 22.99 18.02 41.632 40.39 41.632h486.539c22.37 0 40.39-18.641 40.39-41.632V254.128zM306.324 646.839c33.554 0 60.895-27.962 60.895-62.138s-27.34-62.138-60.895-62.138-60.895 27.962-60.895 62.138c.621 34.176 27.34 62.138 60.895 62.138zm609.572 365.37c-18.641 10.564-41.632 4.35-52.196-14.291l-83.265-146.645c-6.835 1.242-14.291 1.864-21.126 1.864H300.73c-7.456 0-14.291-.622-21.127-1.864L196.34 997.918c-10.564 18.641-34.176 24.855-52.196 14.292-18.641-10.564-24.855-34.798-14.292-53.439l77.673-136.703c-41.011-29.826-65.867-79.537-62.138-134.84l29.205-444.906c4.97-74.566 52.195-133.597 132.353-133.597h121.79c0-57.166 45.36-103.148 101.285-103.148s101.285 45.982 101.285 103.148h141.674c80.78 0 106.877 59.031 111.848 133.597l29.205 444.907c3.728 55.302-21.127 105.013-62.138 134.839l77.672 136.703c10.564 19.263 4.35 42.875-13.67 53.439z"/></svg>