<svg class="icon" viewBox="0 0 1024 1024" xmlns="http://www.w3.org/2000/svg" width="1em" height="1em"><path d="M512 972.8C260.267 972.8 55.467 763.733 55.467 512S260.267 55.467 512 55.467 972.8 260.267 972.8 512 763.733 972.8 512 972.8zm0-853.333c-217.6 0-396.8 174.933-396.8 396.8s174.933 396.8 396.8 396.8 396.8-174.934 396.8-396.8-179.2-396.8-396.8-396.8z" fill="currentColor"/><path d="M384 665.6c-85.333 0-153.6-68.267-153.6-153.6S298.667 358.4 384 358.4c38.4 0 72.533 12.8 102.4 38.4 12.8 12.8 12.8 34.133 4.267 46.933-12.8 12.8-34.134 12.8-46.934 4.267-17.066-17.067-38.4-25.6-59.733-25.6-51.2 0-89.6 42.667-89.6 89.6s42.667 89.6 89.6 89.6c21.333 0 42.667-8.533 59.733-21.333 12.8-12.8 34.134-8.534 46.934 4.266 12.8 12.8 8.533 34.134-4.267 46.934C456.533 652.8 422.4 665.6 384 665.6zm298.667 0c-85.334 0-153.6-68.267-153.6-153.6s68.266-153.6 153.6-153.6c38.4 0 72.533 12.8 102.4 38.4 12.8 12.8 12.8 34.133 4.266 46.933-12.8 12.8-34.133 12.8-46.933 4.267-17.067-17.067-38.4-25.6-59.733-25.6-51.2 0-89.6 42.667-89.6 89.6s42.666 89.6 89.6 89.6c21.333 0 42.666-8.533 59.733-21.333 12.8-12.8 34.133-8.534 46.933 4.266 12.8 12.8 8.534 34.134-4.266 46.934-29.867 21.333-64 34.133-102.4 34.133z" fill="currentColor"/></svg>