<svg xmlns="http://www.w3.org/2000/svg" viewBox="0 0 160 160"><g fill="none" strokeWidth="2"><path stroke="#2d3947" d="M34.39 87.38q-1.37 6.49.74 14.31 5.47 20.3 26.16 19.67" vector-effect="non-scaling-stroke"/><path stroke="#a5aab1" d="M61.29 121.36q3.06-.84 6.45-.08" vector-effect="non-scaling-stroke"/><path stroke="#2d3947" d="M67.74 121.28q16.64.16 23.63-15.19 3.4-7.46 1.81-14.53" vector-effect="non-scaling-stroke"/><path stroke="#a5aab1" d="m93.18 91.56-.07-40.85q0-.71-.7-.71h-14.9a.56.56 0 0 0-.56.55l-.39 43.56" vector-effect="non-scaling-stroke"/><path stroke="#2d3947" d="M76.56 94.11q-1.1 1.25-1.83 4.93c-.8 4.06-4.89 6.75-9 7.17q-11.77 1.2-14.21-13.1" vector-effect="non-scaling-stroke"/><path stroke="#a5aab1" d="M51.52 93.11q-1.02-20.64-.34-42.15a.93.93 0 0 0-.93-.96H35.51q-.85 0-.86.86l-.26 36.52" vector-effect="non-scaling-stroke"/><path stroke="#878e95" d="M51.52 93.11c.06 8.79 4.43 14.14 13.44 13.88q10.48-.31 11.6-12.88M93.18 91.56c0 16.55-8.53 28.1-25.44 29.72M61.29 121.36c-21.36-1.21-26.66-15.41-26.9-33.98" vector-effect="non-scaling-stroke"/><path stroke="#a5aab1" d="M124.01 50.55a.54.54 0 0 0-.54-.54h-15.2a.54.54 0 0 0-.54.54v68.9a.54.54 0 0 0 .54.54h15.2a.54.54 0 0 0 .54-.54v-68.9" vector-effect="non-scaling-stroke"/></g><path fill="#4b5563" d="M151.96 121.992a29.34 29.34 0 0 1-29.442 29.237l-85.54-.299a29.34 29.34 0 0 1-29.237-29.442l.299-85.4A29.34 29.34 0 0 1 37.481 6.852l85.54.299a29.34 29.34 0 0 1 29.237 29.442l-.298 85.4ZM34.39 87.38q-1.37 6.49.74 14.31 5.47 20.3 26.16 19.67 3.06-.84 6.45-.08 16.64.16 23.63-15.19 3.4-7.46 1.81-14.53l-.07-40.85q0-.71-.7-.71h-14.9a.56.56 0 0 0-.56.55l-.39 43.56q-1.1 1.25-1.83 4.93c-.8 4.06-4.89 6.75-9 7.17q-11.77 1.2-14.21-13.1-1.02-20.64-.34-42.15a.93.93 0 0 0-.93-.96H35.51q-.85 0-.86.86l-.26 36.52Zm89.62-36.83a.54.54 0 0 0-.54-.54h-15.2a.54.54 0 0 0-.54.54v68.9a.54.54 0 0 0 .54.54h15.2a.54.54 0 0 0 .54-.54v-68.9Z"/><path fill="#fff" d="M51.52 93.11c.06 8.79 4.43 14.14 13.44 13.88q10.48-.31 11.6-12.88l.39-43.56a.56.56 0 0 1 .56-.55h14.9q.7 0 .7.71l.07 40.85c0 16.55-8.53 28.1-25.44 29.72q-3.39-.76-6.45.08c-21.36-1.21-26.66-15.41-26.9-33.98l.26-36.52q.01-.86.86-.86h14.74a.93.93 0 0 1 .93.96q-.68 21.51.34 42.15Z"/><rect width="16.28" height="69.98" x="107.73" y="50.01" fill="#fff" rx=".54"/><path fill="#0e1d2a" d="M34.39 87.38c.24 18.57 5.54 32.77 26.9 33.98q-20.69.63-26.16-19.67-2.11-7.82-.74-14.31ZM93.18 91.56q1.59 7.07-1.81 14.53-6.99 15.35-23.63 15.19c16.91-1.62 25.44-13.17 25.44-29.72ZM51.52 93.11q2.44 14.3 14.21 13.1c4.11-.42 8.2-3.11 9-7.17q.73-3.68 1.83-4.93-1.12 12.57-11.6 12.88c-9.01.26-13.38-5.09-13.44-13.88Z"/></svg>