<svg xmlns="http://www.w3.org/2000/svg" width="153" height="152" viewBox="0 0 153 152"><defs><linearGradient id="a" x1="55.291%" x2="5.896%" y1="30.794%" y2="77.586%"><stop offset="0%" stop-color="#29CDFF"/><stop offset="36.245%" stop-color="#148EFF"/><stop offset="100%" stop-color="#0A60FF"/></linearGradient><linearGradient id="b" x1="56.095%" x2="46.058%" y1="27.849%" y2="80.205%"><stop offset="0%" stop-color="#FA816E"/><stop offset="48.012%" stop-color="#F74A5C"/><stop offset="100%" stop-color="#F51D2C"/><stop offset="100%" stop-color="#F51D2C"/><stop offset="100%" stop-color="#F51D2C"/></linearGradient><linearGradient id="c" x1="50%" x2="50%" y1="-22.998%" y2="100%"><stop offset="0%" stop-color="#FA8E7D"/><stop offset="49.634%" stop-color="#F74A5C"/><stop offset="100%" stop-color="#F51D2C"/></linearGradient><linearGradient id="d" x1="50%" x2="31.831%" y1="0%" y2="116.816%"><stop offset="0%" stop-color="#4285EB"/><stop offset="100%" stop-color="#2EC7FF"/></linearGradient></defs><g fill="none" fill-rule="evenodd"><path fill="url(#a)" d="M47.504 2.22C55.258-2.308 65.212.31 69.738 8.063l40.324 69.085.024.04a8.97 8.97 0 0 1-3.29 12.255L58.18 24.323a3.048 3.048 0 0 0-5.26.001L16.63 86.321a8.94 8.94 0 0 1-12.22 3.204 8.89 8.89 0 0 1-3.197-12.161l40.445-69.3a16.26 16.26 0 0 1 5.845-5.845" transform="translate(.533 31.39)"/><path fill="url(#b)" d="M115.343 2.402a9.125 9.125 0 0 1 9.126 9.076l.258 47.749a9.04 9.04 0 0 1-9.03 9.087 9.12 9.12 0 0 1-9.128-9.072l-.254-47.763a9.03 9.03 0 0 1 9.028-9.077" transform="rotate(-30 174.362 50.063)"/><path fill="url(#c)" d="M142.647 90.726c5.012 0 9.076-4.02 9.076-8.98s-4.064-8.98-9.076-8.98-9.076 4.02-9.076 8.98 4.063 8.98 9.076 8.98" transform="translate(.533 31.39)"/><path fill="url(#d)" d="m114.609 24.548-.112-.191a3.048 3.048 0 0 0-5.27.012l-5.146 8.896-31.093 52.909a9.093 9.093 0 0 1-12.383 3.27 8.977 8.977 0 0 1-3.27-12.297l33.14-56.852q3.931-5.767 11.48-5.767 7.547 0 12.654 10.02" transform="matrix(-1 0 0 1 167.934 31.39)"/></g></svg>