<svg xmlns="http://www.w3.org/2000/svg" viewBox="0 0 160 160"><path fill="#646cff" d="M81.28 55.9c-.1-11.67-2.93-22.55-9.37-32.38-1-1.5-2.14-2.86-2.5-4.71a8.1 8.1 0 0 1 4-8.61 7.89 7.89 0 0 1 9.3 1.23 36 36 0 0 1 5.9 8.83 75.2 75.2 0 0 1 8.44 28.58 83.2 83.2 0 0 1-5.23 36.74 103 103 0 0 1-3 7.28 1.2 1.2 0 0 0 0 1.41c9.58 13.3 21.76 23 37.85 27.24a54.4 54.4 0 0 0 19.68 1.57 7.72 7.72 0 0 1 8.36 6.9 7.903 7.903 0 0 1-6.7 9 64.7 64.7 0 0 1-23-1.33 77.7 77.7 0 0 1-36.93-19.88 93.6 93.6 0 0 1-11.91-13.71 2.18 2.18 0 0 0-2.3-1.06 72.7 72.7 0 0 0-27.38 7.55c-11.6 6-20.67 14.58-26.4 26.45a10.13 10.13 0 0 1-3.7 4.7 8 8 0 0 1-9.19-.7 7.86 7.86 0 0 1-2.36-9.28 60.3 60.3 0 0 1 8.72-14.52c12.2-15.43 28.21-24.59 47.32-28.57A85 85 0 0 1 73.07 87c.524.015 1-.307 1.18-.8a76 76 0 0 0 6.53-22.3c.351-2.652.518-5.325.5-8"/><path fill="#646cff" d="M136.26 108.34a44.7 44.7 0 0 1-11.13-2.87 46.1 46.1 0 0 1-19.66-13.76 8 8 0 0 1 5.72-13.22 7.93 7.93 0 0 1 6.54 2.93 33.27 33.27 0 0 0 18.87 10.75c1.546.155 3.058.553 4.48 1.18a8.08 8.08 0 0 1 3.84 9.21c-.92 3.52-4.13 5.81-8.66 5.78m-80.6-75.02a7.61 7.61 0 0 1 6.64 5 49.1 49.1 0 0 1 3.64 17 46.3 46.3 0 0 1-2.46 17.28c-2 5.77-8.24 7.79-12.89 4.15a8.1 8.1 0 0 1-2.39-9 31.7 31.7 0 0 0 1.68-12.36 35.8 35.8 0 0 0-2.43-11c-2.1-5.45 1.75-11.07 8.21-11.07m22.26 93.25a8 8 0 0 1-6.68 7.86 32.88 32.88 0 0 0-19.7 12.19 8.13 8.13 0 0 1-11.21 1.62 8 8 0 0 1-1.41-11.58A51 51 0 0 1 54 123.81a45.8 45.8 0 0 1 14-5.1c5.35-1.04 9.91 2.56 9.92 7.86"/></svg>