<svg xmlns="http://www.w3.org/2000/svg" xmlns:xlink="http://www.w3.org/1999/xlink" width="72px" height="36px" viewBox="0 0 72 36"><title>UI/Icon</title><desc>Created with Sketch.</desc><defs><polygon id="path-1" points="7.2e-05 0 72 0 72 36 7.2e-05 36"></polygon></defs><g id="UI/Icon" stroke="none" stroke-width="1" fill="none" fill-rule="evenodd"><g id="Group-8"><g id="Group-3"><mask id="mask-2" fill="white"><use xlink:href="#path-1"></use></mask><g id="Clip-2"></g><path d="M59.012712,19.217592 C58.903992,19.139832 58.795992,19.060632 58.690152,18.977832 C58.795992,19.060632 58.903992,19.139832 59.012712,19.217592 M72.000072,18.000072 L72.000072,3.088152 C68.023512,-1.029528 61.576632,-1.029528 57.600072,3.088152 L50.400072,10.544472 L43.200072,3.088152 C39.223512,-1.029528 32.776632,-1.029528 28.800072,3.088152 L21.600072,10.544472 L14.400072,3.088152 C10.423512,-1.029528 3.976632,-1.029528 7.2e-05,3.088152 L7.2e-05,18.000072 C3.677832,21.808152 3.677832,21.808152 7.2e-05,18.000072 L14.400072,32.911992 C18.376632,37.029672 24.823512,37.029672 28.800072,32.911992 L36.000072,25.455672 L43.200072,32.911992 C47.176632,37.029672 53.623512,37.029672 57.600072,32.911992 L72.000072,18.000072 C68.702472,21.415032 68.702472,21.414312 72.000072,18.000072" id="Fill-1" fill="#38EF7D" mask="url(#mask-2)"></path></g><path d="M57.554424,17.959032 C53.645544,13.860792 47.133864,13.932792 43.199784,18.006552 L35.999784,25.462152 L43.199784,32.917752 C47.159784,37.018872 53.639784,37.018872 57.599784,32.917752 L71.999784,18.006552 C68.008104,22.140072 61.527384,22.124232 57.554424,17.959032" id="Fill-4" fill-opacity="0.2" fill="#000000"></path><path d="M28.800144,3.09456 L14.400144,18.00648 C10.423584,22.12416 3.976704,22.12416 0.000144,18.00648 L14.400144,32.91768 C18.360144,37.0188 24.840144,37.0188 28.800144,32.91768 L43.200144,18.00648 C47.176704,13.8888 53.623584,13.8888 57.600144,18.00648 L50.400144,10.55016 L43.200144,3.09456 C39.240144,-1.00584 32.760144,-1.00584 28.800144,3.09456" id="Fill-6" fill-opacity="0.1" fill="#000000"></path></g></g></svg>