<svg xmlns="http://www.w3.org/2000/svg" width="388" height="516" fill="none" viewBox="0 0 388 516"><path fill="#1F1F23" d="m286.591 183.892 56.951 54.799-47.766-8.091zM91.856 412.285l-56.95-13.608 49.601 59.213z"/><path fill="#1F1F23" d="M80.099 435.088c-24.985-13.24-44.459-31.63-58.788-55.536C6.98 356.014 0 329.534 0 299.743c0-27.583 4.042-53.696 12.86-78.705 8.45-24.642 22.413-54.064 42.254-88.636L133.008 0h121.984l55.114 55.168-149.542 95.991 1.838 1.839q16.533-5.517 33.068-5.517c23.882 0 46.295 6.252 66.871 18.389q31.414 18.205 49.602 51.858c12.493 22.435 18.371 48.547 18.371 77.97 0 31.629-6.981 59.581-21.31 83.854-14.33 24.274-33.803 42.663-59.156 55.903-25.352 13.241-53.643 19.861-85.977 19.861-19.841 0-38.579-2.575-55.848-8.091-9.553-3.311-19.106-7.356-27.924-12.137m128.598-90.475c11.39-11.769 16.901-26.848 16.901-44.87 0-17.285-5.511-31.629-16.166-42.662-11.023-11.402-24.618-16.918-41.152-16.918-18.371 0-33.435 5.516-45.56 16.918s-18.004 25.377-18.004 42.662c0 18.022 5.879 33.101 17.269 44.87 11.757 11.769 26.087 17.654 43.723 17.654q26.455 0 42.989-17.654"/><path fill="#fff" d="M133.008 491.358c-24.985-13.24-44.459-31.629-58.788-55.535-14.33-23.906-21.31-50.386-21.31-79.809 0-27.584 4.04-53.696 12.859-78.705 8.45-25.01 22.78-54.432 42.621-88.636L185.182 58.11c.735-1.104 1.837-1.84 3.307-1.84h116.106c1.469 0 2.572 1.84 1.837 2.943l-91.856 147.849c11.023-3.678 23.148-3.31 34.17-3.31 23.883 0 46.296 6.252 66.872 18.389q31.414 18.206 49.602 51.857c12.492 22.435 18.371 48.548 18.371 77.971 0 31.629-6.981 59.58-21.311 83.854s-33.803 42.663-59.155 55.903-53.644 19.861-85.977 19.861c-30.864 0-59.155-6.621-84.14-20.229m128.966-90.474c11.39-11.769 16.901-26.848 16.901-44.87 0-17.286-5.511-31.629-16.167-42.663-11.022-11.401-24.617-16.918-41.151-16.918-18.371 0-33.436 5.517-45.561 16.918s-18.003 25.377-18.003 42.663c0 18.022 5.878 33.101 17.268 44.87 11.758 11.769 26.088 17.653 43.724 17.653q25.903 0 42.989-17.653"/><path fill="#1F1F23" d="M217.515 516c-31.966 0-60.992-6.988-86.712-20.596q-38.58-20.412-60.625-57.374c-14.697-24.274-22.045-51.858-22.045-82.016 0-27.951 4.409-54.799 12.86-80.177 8.45-25.009 22.78-55.167 42.988-89.371l76.792-130.93c1.469-2.575 4.041-4.046 6.981-4.046H303.86c2.204 0 4.409 1.47 5.879 3.31 1.469 1.839 1.102 4.78 0 6.62l-85.978 138.654c7.349-1.103 14.697-1.103 21.678-1.103h2.94q36.926 0 69.443 18.757c21.311 12.504 38.579 30.526 51.439 53.696 12.493 23.17 19.106 50.019 19.106 80.177 0 32.365-7.348 61.42-22.045 86.061s-34.905 44.134-60.992 57.742C279.61 509.012 250.216 516 217.515 516M188.489 61.052l-76.425 130.195c-19.473 33.836-33.803 63.259-42.253 87.901-8.084 24.273-12.493 50.386-12.493 77.234 0 28.319 6.981 54.432 20.576 77.602 13.595 22.803 32.701 41.192 56.951 53.697 24.25 12.872 51.807 19.492 82.303 19.492 31.231 0 59.155-6.62 83.772-19.492 24.25-12.873 43.724-30.894 57.319-54.432 13.594-23.171 20.575-50.754 20.575-81.28 0-28.688-5.878-54.065-18.003-75.764-11.758-21.699-27.925-38.617-48.133-50.018-19.841-11.769-41.886-17.654-64.667-17.654h-2.939c-9.921 0-20.576 0-29.761 2.942l-12.125 4.046 96.265-154.469zm30.496 362.267c-18.739 0-34.538-6.253-47.03-19.125-12.493-12.505-18.739-28.687-18.739-47.812 0-18.389 6.614-34.204 19.473-45.973 12.86-12.137 29.027-18.021 48.5-18.021 17.637 0 32.701 6.252 44.459 18.389 11.757 12.137 17.636 27.584 17.636 45.973 0 19.125-6.246 35.307-18.004 47.812-12.125 12.136-27.557 18.757-46.295 18.757m2.204-122.104c-17.269 0-31.231 5.148-42.253 15.446-11.023 10.298-16.534 23.171-16.534 39.353 0 16.918 5.143 30.526 16.166 41.56 10.655 11.033 24.25 16.182 40.784 16.182 16.167 0 29.027-5.149 39.315-16.182 10.655-11.034 15.431-24.642 15.431-41.56 0-16.182-4.776-29.055-15.064-39.72-9.92-9.931-22.413-15.079-37.845-15.079"/></svg>