<svg xmlns="http://www.w3.org/2000/svg" width="500" height="500" version="1.0" viewBox="0 0 375 375"><defs><clipPath id="a"><path d="M0 11.719h375v351.75H0Zm0 0"/></clipPath></defs><path fill="#455097" d="M141.21 269.668c12.892 0 23.438-10.55 23.438-23.45 0-12.898-10.546-23.448-23.437-23.448-12.89 0-23.438 10.55-23.438 23.449 0 12.898 10.547 23.449 23.438 23.449m93.749 0c12.892 0 23.438-10.55 23.438-23.45 0-12.898-10.546-23.448-23.437-23.448-12.89 0-23.438 10.55-23.438 23.449 0 12.898 10.547 23.449 23.438 23.449m0 0"/><g clip-path="url(#a)"><path fill="#455097" d="M340.43 211.043h-10.547c-15.235-57.453-66.797-99.66-130.078-105.523V23.445c0-7.035-4.688-11.726-11.72-11.726-7.03 0-11.718 4.691-11.718 11.726v82.075c-63.281 4.687-114.844 48.07-130.078 105.523H35.742c-19.922 0-35.156 15.242-35.156 35.176 0 19.933 15.234 35.176 35.156 35.176H46.29c5.86 22.277 17.578 42.21 33.984 58.625h-9.375c-7.03 0-11.718 4.687-11.718 11.722s4.687 11.727 11.718 11.727h234.375c7.032 0 11.72-4.692 11.72-11.727s-4.688-11.722-11.72-11.722h-10.546c16.406-16.415 28.125-36.348 33.984-58.625h10.547c19.922 0 35.156-15.243 35.156-35.176 0-19.934-14.062-35.176-33.984-35.176M82.617 240.355c0-22.277 18.75-41.035 41.016-41.035h128.906c22.266 0 41.016 18.758 41.016 41.035v11.727c0 22.277-18.75 41.035-41.016 41.035H123.633c-22.266 0-41.016-18.758-41.016-41.035Zm0 0"/></g></svg>