<svg xmlns="http://www.w3.org/2000/svg" width="32" height="32" viewBox="0 0 32 32"><g fill="none" fill-rule="evenodd"><path fill="#FFF" d="m7 9 10 1v15l2 5-8-1-4-4z"/><path fill="#924992" d="M17.212 28.981c4.536 0 8.227-3.69 8.227-8.227v-.239H8.985v.239c0 4.536 3.69 8.227 8.227 8.227"/><path fill="#FF6868" d="M25.439 16.074H8.985v4.68a8.18 8.18 0 0 0 1.557 4.809h13.339a8.18 8.18 0 0 0 1.558-4.81z"/><path fill="#FEED30" d="M8.985 9.104v10.503h16.454V8.117c-2.673.55-5.405.826-8.177.826-2.807 0-5.573.725-8.277.161"/><path fill="#111" d="M24.127 20.754c0 4.536-3.691 8.227-8.228 8.227-4.536 0-8.227-3.69-8.227-8.227v-10.65c2.705.564 5.471.849 8.278.849 2.772 0 5.504-.277 8.177-.827zm5.968-15.166a37.6 37.6 0 0 1-14.145 2.74c-4.891 0-9.65-.922-14.145-2.74A1.312 1.312 0 1 0 .82 8.022a40 40 0 0 0 4.227 1.442v11.29c0 5.984 4.868 10.852 10.851 10.852S26.75 26.738 26.75 20.754V9.492a40 40 0 0 0 4.328-1.47 1.312 1.312 0 0 0-.984-2.434M7.016 4.038a2.019 2.019 0 1 0 0-4.038 2.019 2.019 0 0 0 0 4.038m17.868 0a2.019 2.019 0 1 0 0-4.038 2.019 2.019 0 0 0 0 4.038"/></g></svg>