<svg id="logo" xmlns="http://www.w3.org/2000/svg" width="83.947" height="74" viewBox="0 0 83.947 74">
  <g id="Group_6" data-name="Group 6" transform="translate(54.269)">
    <path id="Path_1" data-name="Path 1" d="M1050.345,783.347a5.072,5.072,0,0,1-4.23,2.81c-2.417.335-2.862,1.171-1.758,3.243a2.867,2.867,0,0,1-.34,3.5,1.552,1.552,0,0,0-.318,1.76,5.3,5.3,0,0,1-.467,2.366,9.559,9.559,0,0,0-.62,2.243c0,1.141.4,2.277.437,3.422.11,3.045-1.023,4.826-4.01,5.557a78.17,78.17,0,0,1-8.376,1.267c-1.247.164-2.528.1-3.763.309a5.041,5.041,0,0,0-4.021,2.889h-.316l-1.091-.57a6.982,6.982,0,0,1,5.713-3.835c3.186-.33,6.38-.586,9.563-.939a10.965,10.965,0,0,0,2.425-.657,3.277,3.277,0,0,0,2.406-3.479c-.073-1.358-.451-2.711-.423-4.06a13.353,13.353,0,0,1,.746-2.9c.123-.476.416-1.059.255-1.43a2.017,2.017,0,0,1,.457-2.568,1.763,1.763,0,0,0,.294-2.5c-1.3-2.419-.336-4.367,2.319-4.966.256-.058.514-.107.773-.149,2.6-.419,2.866-.89,1.712-3.225a4.491,4.491,0,0,1,.544-.494,2.813,2.813,0,0,1,.6-.225l1.494,2Z" transform="translate(-1020.667 -738.71)" fill="#fff"/>
    <path id="Path_2" data-name="Path 2" d="M1008.434,24q.716.255,1.433.508c.112,1.535.112,1.535-2.7.958V24Z" transform="translate(-1007.171 -24.002)" fill="#fff"/>
    <path id="Path_3" data-name="Path 3" d="M1365.539,554.33l.465-3.923.552-.184.965,1.057C1366.639,552.078,1368.073,554.1,1365.539,554.33Z" transform="translate(-1345.404 -520.87)" fill="#fff"/>
    <path id="Path_4" data-name="Path 4" d="M1390.251,643.33l-1.229.915-1.767-2.585,1.255-.879Z" transform="translate(-1365.898 -606.375)" fill="#fff"/>
    <path id="Path_5" data-name="Path 5" d="M1438.443,709.9l1.833,2.427-1.183,1-1.811-2.431Z" transform="translate(-1413.116 -671.636)" fill="#fff"/>
    <path id="Path_6" data-name="Path 6" d="M1219.814,119.682l.954-1.172,2.268,2.068-.994,1.171Z" transform="translate(-1207.866 -113.2)" fill="#fff"/>
    <path id="Path_7" data-name="Path 7" d="M1276.353,178.528l1.131-1.014,1.88,2.347-1.174.987Z" transform="translate(-1261.229 -168.889)" fill="#fff"/>
    <path id="Path_8" data-name="Path 8" d="M1080.326,41.387l.485-1.458,2.855,1.093-.641,1.365Z" transform="translate(-1076.216 -39.034)" fill="#fff"/>
    <path id="Path_9" data-name="Path 9" d="M1324.425,246.278l1.289-.8,1.54,2.494-1.259.859Z" transform="translate(-1306.6 -233.125)" fill="#fff"/>
    <path id="Path_10" data-name="Path 10" d="M1370.649,320.831l-1.618.428c.2-1.144-1.865-2.257.448-3.328Z" transform="translate(-1348.077 -301.534)" fill="#fff"/>
    <path id="Path_11" data-name="Path 11" d="M1392.143,482.536l-1.468-.452c.112-.827.221-1.63.351-2.584l1.533-.132Z" transform="translate(-1369.127 -453.966)" fill="#fff"/>
    <path id="Path_12" data-name="Path 12" d="M1155.275,71.933l2.565,1.556-.765,1.307-2.45-1.462Z" transform="translate(-1146.341 -69.24)" fill="#fff"/>
    <path id="Path_13" data-name="Path 13" d="M1385.274,399.392l1.729-.267.463,2.878C1384.935,402.383,1386.166,400.32,1385.274,399.392Z" transform="translate(-1364.03 -378.199)" fill="#fff"/>
  </g>
  <g id="Group_13" data-name="Group 13" transform="translate(0 12.318)">
    <g id="Group_8" data-name="Group 8" transform="translate(0 0.305)">
      <g id="Group_7" data-name="Group 7">
        <path id="Path_14" data-name="Path 14" d="M31.72,252.074h8.872q6.049,0,8.569,3.1t2.52,8.9V280.3q0,6.1-2.445,9.351T40.945,292.9H31.72Zm8.972,37.957a7.06,7.06,0,0,0,4.612-1.285,5.913,5.913,0,0,0,1.991-3.428,28.1,28.1,0,0,0,.454-5.62V264.474a20.527,20.527,0,0,0-.554-5.318,5.24,5.24,0,0,0-2.117-3.05,8.085,8.085,0,0,0-4.537-1.059h-4.99v34.983Z" transform="translate(-31.72 -252.074)" fill="#fff"/>
      </g>
    </g>
    <g id="Group_10" data-name="Group 10" transform="translate(36.432 0)">
      <g id="Group_9" data-name="Group 9">
        <path id="Path_15" data-name="Path 15" d="M680.136,246.651h3.831v40.83h-3.831Z" transform="translate(-680.136 -246.651)" fill="#fff"/>
        <path id="Path_16" data-name="Path 16" d="M877.5,246.651h8.872q6.049,0,8.569,3.1t2.52,8.9v16.231q0,6.1-2.445,9.351t-8.292,3.251H877.5Zm8.973,37.957a7.059,7.059,0,0,0,4.612-1.285,5.913,5.913,0,0,0,1.991-3.428,28.106,28.106,0,0,0,.454-5.62V259.051a20.533,20.533,0,0,0-.554-5.318,5.24,5.24,0,0,0-2.117-3.05,8.083,8.083,0,0,0-4.537-1.059h-4.99v34.983Z" transform="translate(-866.407 -246.651)" fill="#fff"/>
      </g>
    </g>
    <g id="Group_12" data-name="Group 12" transform="translate(23.733 17.777)">
      <g id="Group_11" data-name="Group 11">
        <path id="Path_17" data-name="Path 17" d="M454.124,563.054h8.216V565.3h-8.216Z" transform="translate(-454.124 -563.054)" fill="#fff"/>
      </g>
    </g>
  </g>
</svg>
