<svg xmlns="http://www.w3.org/2000/svg" width="485" height="350" viewBox="0 0 485 350"><defs><clipPath id="a"><path d="M1920 0v5282H0V0z"/></clipPath><clipPath id="b"><path d="M86.88 0Q69.635 12.304 69.635 35.68t17.243 35.352H0Q18.244 58.988 18.244 35.68 18.244 12.26 0 0z"/></clipPath><clipPath id="d"><path d="M86.88 0Q68.635 12.304 68.635 35.68t18.243 35.352H0Q18.244 58.988 18.244 35.68 18.244 12.26 0 0z"/></clipPath><clipPath id="f"><path d="M86.88 0Q69.167 14.307 69.167 37.92t17.711 33.834H0q18.595-13.575 18.595-37.12Q18.595 10.975 0 0z"/></clipPath><clipPath id="h"><path d="M86.88 0Q68.284 13.837 68.284 37.45t18.594 34.304H0q18.595-13.575 18.595-37.12Q18.595 10.975 0 0z"/></clipPath><clipPath id="j"><path d="m85.677 192.31 47.536 27.337a25.45 25.45 0 0 1 12.764 22.065v54.499a25.45 25.45 0 0 1-12.764 22.064l-47.536 27.337a25.45 25.45 0 0 1-25.377 0l-47.536-27.337A25.45 25.45 0 0 1 0 296.211v-54.5a25.45 25.45 0 0 1 12.764-22.064L60.3 192.311a25.45 25.45 0 0 1 25.377 0m337.12 0 47.536 27.337a25.45 25.45 0 0 1 12.764 22.065v54.499a25.45 25.45 0 0 1-12.764 22.064l-47.536 27.337a25.45 25.45 0 0 1-25.377 0l-47.536-27.337a25.45 25.45 0 0 1-12.764-22.064v-54.5a25.45 25.45 0 0 1 12.764-22.064l47.536-27.336a25.45 25.45 0 0 1 25.377 0M254.237 91.338l47.536 27.337a25.45 25.45 0 0 1 12.764 22.064v54.5a25.45 25.45 0 0 1-12.764 22.064l-47.536 27.336a25.45 25.45 0 0 1-25.377 0l-47.536-27.336a25.45 25.45 0 0 1-12.764-22.065v-54.499a25.45 25.45 0 0 1 12.764-22.064l47.536-27.337a25.45 25.45 0 0 1 25.377 0M85.677 3.388l47.536 27.337a25.45 25.45 0 0 1 12.764 22.064v54.5a25.45 25.45 0 0 1-12.764 22.064l-47.536 27.336a25.45 25.45 0 0 1-25.377 0l-47.536-27.336A25.45 25.45 0 0 1 0 107.288V52.79a25.45 25.45 0 0 1 12.764-22.064L60.3 3.388a25.45 25.45 0 0 1 25.377 0m337.12 0 47.536 27.337a25.45 25.45 0 0 1 12.764 22.064v54.5a25.45 25.45 0 0 1-12.764 22.064l-47.536 27.336a25.45 25.45 0 0 1-25.377 0l-47.536-27.336a25.45 25.45 0 0 1-12.764-22.065V52.79a25.45 25.45 0 0 1 12.764-22.064L397.42 3.388a25.45 25.45 0 0 1 25.377 0"/></clipPath><clipPath id="k"><path d="M492.235 0v377.282H0V0z"/></clipPath><linearGradient id="c" x1="43.44" x2="43.44" y1="0" y2="71.032" gradientUnits="userSpaceOnUse"><stop offset="0%" stop-color="#06AEF9"/><stop offset="100%" stop-color="#06ABF9"/></linearGradient><linearGradient id="e" x1="43.44" x2="43.44" y1=".736" y2="71.032" gradientUnits="userSpaceOnUse"><stop offset="0%" stop-color="#01D4FD"/><stop offset="100%" stop-color="#01D1FE"/></linearGradient><linearGradient id="g" x1="43.44" x2="43.44" y1=".085" y2="71.32" gradientUnits="userSpaceOnUse"><stop offset="0%" stop-color="#04BBFB"/><stop offset="100%" stop-color="#05B7FB"/></linearGradient><linearGradient id="i" x1="43.44" x2="43.44" y1="0" y2="71.754" gradientUnits="userSpaceOnUse"><stop offset="0%" stop-color="#01C9FC"/><stop offset="100%" stop-color="#01CAFC"/></linearGradient><linearGradient id="l" x1="28.094" x2="477.289" y1="36.804" y2="345.029" gradientUnits="userSpaceOnUse"><stop offset=".091%" stop-color="#00E4FF"/><stop offset="78.101%" stop-color="#06A9F9"/><stop offset="100%" stop-color="#06F"/></linearGradient></defs><g clip-path="url(#a)" transform="translate(-718 -531)"><g clip-path="url(#b)" transform="translate(1085.62 670.502)"><path fill="url(#c)" d="M0 0h86.88v71.032H0z" opacity="50%"/></g><g clip-path="url(#d)" transform="translate(748.5 670.502)"><path fill="url(#e)" d="M0 0h86.88v71.032H0z" opacity="50%"/></g><g clip-path="url(#f)" transform="rotate(62 28.476 1178.974)"><path fill="url(#g)" d="M0 0h86.88v71.754H0z" opacity="50%"/></g><g clip-path="url(#h)" transform="scale(-1 1)rotate(62 -932.032 -419.58)"><path fill="url(#i)" d="M0 0h86.88v71.754H0z" opacity="50%"/></g><g clip-path="url(#j)" transform="translate(718.952 531.5)"><path fill="#1B1212" d="M0 0h483.097v349H0z"/><g clip-path="url(#k)" transform="translate(-4.569 -16.346)"><path fill="url(#l)" d="M4.569 16.346h483.097v349H4.569z"/></g></g></g></svg>