<svg width="256" height="256" viewBox="0 0 256 256" fill="none" xmlns="http://www.w3.org/2000/svg">
<path d="M168 58C168 46.9543 176.954 38 188 38H198C209.046 38 218 46.9543 218 58V198C218 209.046 209.046 218 198 218H188C176.954 218 168 209.046 168 198V58Z" fill="#FFCE00"/>
<path d="M103 103C103 91.9543 111.954 83 123 83H133C144.046 83 153 91.9543 153 103V153C153 164.046 144.046 173 133 173H123C111.954 173 103 164.046 103 153V103Z" fill="#FFCE00"/>
<path d="M38 58C38 46.9543 46.9543 38 58 38H68C79.0457 38 88 46.9543 88 58V198C88 209.046 79.0457 218 68 218H58C46.9543 218 38 209.046 38 198V58Z" fill="#FFCE00"/>
</svg>
