<svg xmlns="http://www.w3.org/2000/svg" width="356" height="277" fill="none" viewBox="0 0 356 277"><path fill="#9ABBA1" d="M184 267a3 3 0 1 1-6 0 3 3 0 0 1 6 0"/><path fill="#9ABBA1" fill-rule="evenodd" d="M180.5 277c68.759 0 124.5-55.741 124.5-124.5C305 83.74 249.259 28 180.5 28S56 83.74 56 152.5 111.741 277 180.5 277m0-3c67.103 0 121.5-54.397 121.5-121.5S247.603 31 180.5 31c-29.837 0-57.162 10.755-78.31 28.6l12.164-1.197a1 1 0 0 1 1.008 1.408l-5.139 11.34C129.068 54.855 153.633 45 180.5 45 239.871 45 288 93.13 288 152.5c0 59.371-48.129 107.5-107.5 107.5q-.377 0-.752-.003l-10.731 5.263a1 1 0 0 0-.118 1.729l10.436 7.006q.582.005 1.165.005m0-17c57.714 0 104.5-46.786 104.5-104.5S238.214 48 180.5 48 76 94.786 76 152.5 122.786 257 180.5 257M103 71a3 3 0 1 0 0-6 3 3 0 0 0 0 6" clip-rule="evenodd"/><path fill="#9ABBA1" fill-rule="evenodd" d="M279.941 153c0 54.124-43.876 98-98 98-54.123 0-98-43.876-98-98s43.877-98 98-98c54.124 0 98 43.876 98 98m-125.82-68.418c.536 1.737-1.376 3.87-4.271 4.763-2.895.894-5.677.21-6.213-1.527s1.376-3.87 4.271-4.763c2.895-.894 5.677-.21 6.213 1.526m60.474 4.763c-2.895-.894-4.807-3.026-4.271-4.763s3.318-2.421 6.213-1.527 4.807 3.026 4.271 4.763-3.318 2.42-6.213 1.527m-87.591 9.566a1.5 1.5 0 0 1 1.912.92l2.115 6.031c.399 1.139 1.912 1.364 2.625.39l1.875-2.558a4.545 4.545 0 0 1 4.923-1.674c3.06.879 8.805 2.442 12.801 3.023 6.898 1.004 14.075 1.416 19.542 1.576 2.73.08 5.026.097 6.638.094.805-.001 1.44-.008 1.872-.014l.492-.008.124-.003h.03l.047-.001h.037l.01.001h.03l.124.003.492.008c.432.006 1.067.013 1.872.014 1.612.003 3.908-.014 6.638-.094 5.467-.16 12.644-.572 19.542-1.576 3.996-.581 9.741-2.144 12.801-3.023a4.545 4.545 0 0 1 4.923 1.674l1.875 2.558c.713.974 2.226.749 2.625-.39l2.116-6.032a1.5 1.5 0 0 1 1.911-.92 1.5 1.5 0 0 1 .919 1.913l-2.115 6.032c-1.198 3.417-5.736 4.091-7.876 1.17l-1.875-2.558a1.54 1.54 0 0 0-1.675-.563c-3.046.875-8.974 2.494-13.197 3.108-7.057 1.027-14.36 1.444-19.886 1.606-2.766.081-5.093.098-6.731.095a153 153 0 0 1-2.417-.023l-.133-.002-.01-.001-.01.001-.133.002-.508.009c-.443.006-1.09.013-1.909.014-1.638.003-3.965-.014-6.731-.095-5.526-.162-12.829-.579-19.886-1.606-4.223-.614-10.151-2.233-13.197-3.108a1.54 1.54 0 0 0-1.675.563l-1.875 2.558c-2.14 2.921-6.678 2.247-7.876-1.17l-2.115-6.032a1.5 1.5 0 0 1 .919-1.912" clip-rule="evenodd"/><path fill="#9ABBA1" d="M187.314 64.95c2.617 1.503 1.645 5.342-1.373 5.308-17.742-.199-52.707-2.073-62.581-13.437-9.737-11.207-9.213-23.448-8.196-29.309.321-1.852 2.344-2.646 3.975-1.71l37.077 21.29z"/><path fill="#9ABBA1" d="M176.686 64.95c-2.617 1.503-1.645 5.342 1.373 5.308 17.742-.199 52.707-2.073 62.581-13.437 9.737-11.207 9.213-23.448 8.196-29.309-.321-1.852-2.344-2.646-3.975-1.71l-37.077 21.29z"/><circle cx="180.5" cy="26.5" r="26" fill="#9ABBA1" stroke="#9ABBA1"/><path fill="#799C6D" d="M104.746 210c17.485 23.658 45.578 39 77.254 39s59.769-15.342 77.254-39h-1.873a94 94 0 0 1-1.656 2.123L256.85 210h-3.395l-5.83 10.997a95 95 0 0 1-10.188 8.542L247.796 210H244.4l-12.252 23.111a94 94 0 0 1-8.055 4.52L238.741 210h-3.395l-15.762 29.731a94 94 0 0 1-7.117 2.75L229.686 210h-3.395l-17.9 33.766a94 94 0 0 1-6.531 1.644L220.632 210h-3.396l-19.157 36.138a95 95 0 0 1-6.106.842L211.577 210h-3.395l-19.767 37.286a96 96 0 0 1-5.771.212L202.523 210h-3.396l-19.859 37.461a95 95 0 0 1-5.493-.314L193.468 210h-3.396l-19.516 36.814a94 94 0 0 1-5.244-.783L184.413 210h-3.395l-18.783 35.43a94 94 0 0 1-5.016-1.213L175.359 210h-3.396l-17.689 33.367a93 93 0 0 1-4.803-1.615L166.304 210h-3.396l-16.257 30.667a95 95 0 0 1-4.599-2.001L157.249 210h-3.395l-14.501 27.353a95 95 0 0 1-4.399-2.378L148.195 210h-3.396l-12.424 23.437a95 95 0 0 1-4.2-2.754L139.14 210h-3.396l-10.028 18.917a94 94 0 0 1-3.996-3.137l8.365-15.78h-3.395l-7.305 13.78a95 95 0 0 1-3.784-3.538l5.43-10.242h-3.396l-4.237 7.993a95 95 0 0 1-3.555-3.969l2.133-4.024h-3.395l-.798 1.505a94 94 0 0 1-1.164-1.505z"/><path fill="#799C6D" stroke="#9ABBA1" stroke-width="2" d="M248.164 223.558C230.944 239.943 207.646 250 182 250c-23.111 0-44.315-8.167-60.883-21.772 9.645-2.255 20.215-8.615 20.215-8.615s17.721 12.105 30.207 12.283c12.941.185 31.44-12.283 31.44-12.283s13.806 11.868 24.042 12.283c6.991.284 15.663-4.64 21.143-8.338Z"/><path fill="#9ABBA1" d="M218.73 240.867c-3.101-1.21-6.248-3.001-9.02-4.822a82 82 0 0 1-7.474-5.565l-.446-.38-.113-.099-.028-.024-.006-.006-.59-.521-.647.449-.009.006-.038.026-.152.104q-.205.14-.599.401a108 108 0 0 1-9.951 5.786c-6.229 3.178-13.898 6.233-20.104 6.142-5.988-.088-13.358-3.146-19.336-6.277a108 108 0 0 1-9.543-5.663q-.378-.254-.574-.389l-.146-.101-.036-.025-.009-.006-.542-.382-.562.348-.009.006-.031.019-.126.076q-.169.103-.495.296c-.432.256-1.064.623-1.856 1.064a99 99 0 0 1-6.355 3.247l-.324.15q1.024.633 2.065 1.24a101 101 0 0 0 7.488-3.979l.135-.08.264.178a98 98 0 0 0 2.201 1.429 110 110 0 0 0 7.527 4.343c6.004 3.145 13.738 6.41 20.235 6.506 6.736.099 14.786-3.169 21.042-6.361a110 110 0 0 0 10.143-5.898l.197-.13.041.035a84 84 0 0 0 7.665 5.707c2.265 1.487 4.865 3.019 7.554 4.237q1.292-.525 2.564-1.087"/><path fill="#62CAD3" d="M356 136h-59v88h59l-14-43.5zM0 136h59v88H0l14-43.5z"/><path fill="#00F4D7" d="M36 122h281v88H36z"/><path fill="#5E6B3E" d="M114.139 181.801q1.015 0 1.992.234a8 8 0 0 1 1.894.703q.899.45 1.582 1.211.703.762.762 1.817v4.16q-.117 1.172-1.289 1.269-.547 0-.957-.351a1.22 1.22 0 0 1-.391-.918v-3.555a1.42 1.42 0 0 0-.468-.996 3.1 3.1 0 0 0-.938-.645 5 5 0 0 0-1.074-.351 5.3 5.3 0 0 0-1.113-.117 5.6 5.6 0 0 0-1.133.117 5.4 5.4 0 0 0-1.074.351 3.5 3.5 0 0 0-.938.645q-.41.39-.449.996v3.555q-.097 1.172-1.27 1.269-.546 0-.957-.351a1.22 1.22 0 0 1-.39-.918v-4.16a2.88 2.88 0 0 1 .742-1.817 5.3 5.3 0 0 1 1.582-1.211 8.2 8.2 0 0 1 1.875-.703 8.8 8.8 0 0 1 2.012-.234m10.058.097a1.3 1.3 0 0 1 .899.391q.37.351.39.879v6.758q-.117 1.172-1.289 1.269-.546 0-.957-.351a1.22 1.22 0 0 1-.39-.918v-6.758q.019-.547.41-.898a1.3 1.3 0 0 1 .937-.372m-1.64-2.539q0-.547.468-.937.469-.391 1.133-.391.665 0 1.133.391.47.39.469.937 0 .567-.469.957-.468.391-1.133.391-.664 0-1.133-.391-.468-.39-.468-.957m6.66 2.539q.527.02.898.391.372.351.391.879v6.758a9.9 9.9 0 0 1-.43 2.949 4.74 4.74 0 0 1-1.289 2.07q-.88.86-2.246.938h-.742a1.22 1.22 0 0 1-.879-.391 1.23 1.23 0 0 1-.391-.879q0-.547.371-.937.352-.391.899-.41h.078a1.73 1.73 0 0 0 1.23-.567q.489-.526.625-1.23.137-.703.137-1.817v-6.484q.02-.547.41-.898.391-.372.938-.372m-1.641-2.539q0-.547.469-.937.468-.391 1.133-.391.663 0 1.133.391.468.39.468.937 0 .567-.468.957-.47.391-1.133.391-.665 0-1.133-.391-.47-.39-.469-.957m6.68 2.539q.527.02.898.391.372.351.391.879v6.758q-.117 1.172-1.289 1.269-.547 0-.957-.351a1.22 1.22 0 0 1-.391-.918v-6.758q.02-.547.41-.898.391-.372.938-.372m-1.641-2.539q0-.547.469-.937.468-.391 1.133-.391.664 0 1.133.391.468.39.468.937 0 .567-.468.957-.469.391-1.133.391-.665 0-1.133-.391-.47-.39-.469-.957m15.522 4.581q0-.74.36-1.04t.86-.3q.52 0 .88.3.38.3.38 1.04 0 .72-.38 1.04-.36.32-.88.32-.5 0-.86-.32t-.36-1.04m16.49-2.042q.528.02.898.391.372.351.391.879v6.758a9.9 9.9 0 0 1-.43 2.949 4.74 4.74 0 0 1-1.289 2.07q-.879.86-2.246.938h-.742a1.22 1.22 0 0 1-.879-.391 1.23 1.23 0 0 1-.391-.879q0-.547.372-.937.35-.391.898-.41h.078a1.74 1.74 0 0 0 1.231-.567q.487-.526.625-1.23.136-.703.136-1.817v-6.484q.02-.547.41-.898.391-.372.938-.372m-1.641-2.539q0-.547.469-.937.469-.391 1.133-.391t1.133.391q.468.39.468.937 0 .567-.468.957-.469.391-1.133.391t-1.133-.391q-.469-.39-.469-.957m9.375 11.602q-1.719-.058-2.597-.801-.879-.762-1.27-1.699a5.1 5.1 0 0 1-.39-1.934q0-1.015.371-1.953.39-.957 1.269-1.699.898-.762 2.266-.781h6.328q1.367.02 2.246.781.898.742 1.27 1.699a5.04 5.04 0 0 1 0 3.887q-.391.937-1.27 1.699-.879.743-2.598.801zm-.429-6.25q-.372 0-.645.312-.273.293-.41.704-.117.39-.117.781 0 .41.117.82.137.391.41.703.273.294.645.313h6.484a.93.93 0 0 0 .645-.313q.273-.312.39-.703.137-.41.137-.82a2.4 2.4 0 0 0-.137-.781 1.7 1.7 0 0 0-.39-.704q-.275-.312-.645-.312zm18.789 6.582a8.8 8.8 0 0 1-2.012-.234 8.8 8.8 0 0 1-1.875-.684 5.6 5.6 0 0 1-1.582-1.23 2.88 2.88 0 0 1-.742-1.817v-4.16q0-.547.39-.898.411-.372.957-.372 1.173.099 1.27 1.27v3.555q.04.605.449 1.015.43.391.938.625.526.235 1.074.352a5.6 5.6 0 0 0 1.133.117q.565 0 1.113-.117a5 5 0 0 0 1.074-.352q.527-.234.938-.625.429-.41.468-1.015v-3.555q0-.547.391-.898.411-.372.957-.372 1.172.099 1.289 1.27v4.16a2.83 2.83 0 0 1-.762 1.817 5.6 5.6 0 0 1-1.582 1.23 8.7 8.7 0 0 1-1.894.684 8.5 8.5 0 0 1-1.992.234m9.14-6.738q.371-.937 1.25-1.68.898-.762 2.266-.781h7.344q.546 0 .918.39.39.372.39.918 0 .547-.39.938a1.25 1.25 0 0 1-.918.371h-7.422q-.371 0-.645.312-.273.293-.429.704a2.4 2.4 0 0 0-.137.781v3.418q-.117 1.172-1.289 1.269-.547 0-.957-.351a1.22 1.22 0 0 1-.391-.918v-3.399h.02q0-1.015.39-1.972m20.332-2.754q1.016 0 1.993.234a8 8 0 0 1 1.894.703q.898.45 1.582 1.211.704.762.762 1.817v4.16q-.117 1.172-1.289 1.269-.548 0-.957-.351a1.22 1.22 0 0 1-.391-.918v-3.555a1.4 1.4 0 0 0-.469-.996 3.1 3.1 0 0 0-.937-.645 5 5 0 0 0-1.074-.351 5.3 5.3 0 0 0-1.114-.117q-.566 0-1.132.117a5.5 5.5 0 0 0-1.075.351 3.5 3.5 0 0 0-.937.645q-.41.39-.449.996v3.555q-.098 1.172-1.27 1.269-.548 0-.957-.351a1.22 1.22 0 0 1-.391-.918v-4.16a2.88 2.88 0 0 1 .743-1.817 5.3 5.3 0 0 1 1.582-1.211 8.2 8.2 0 0 1 1.875-.703 8.8 8.8 0 0 1 2.011-.234m12.715 9.16q-1.72-.058-2.597-.801-.88-.762-1.27-1.699a5.1 5.1 0 0 1-.391-1.934q0-1.015.371-1.953.391-.957 1.27-1.699.898-.762 2.266-.781h7.422q.546 0 .917.371.391.351.391.859 0 .528-.391.899a1.28 1.28 0 0 1-.917.351h-7.305q-.43 0-.762.293a1.8 1.8 0 0 0-.469.762 3.3 3.3 0 0 0-.136.918q0 .487.136.957.157.468.469.762.332.273.762.293h7.305q.546 0 .917.351.391.352.391.84 0 .508-.391.859a1.28 1.28 0 0 1-.917.352zm8.145-4.473q0 .372-.332.645-.294.254-.742.254h-6.387q-.45 0-.762-.254-.312-.273-.312-.645 0-.35.312-.625a1.17 1.17 0 0 1 .762-.254h6.387q.449 0 .761.274.313.254.313.605m3.789-4.629q.547 0 .937.371.391.352.41.899v1.973q-.02.8.098 1.484.137.665.625 1.191.489.528 1.231.567h5.214v-5.176q0-.547.391-.898.41-.372.957-.372 1.172.099 1.289 1.27v6.367a9.9 9.9 0 0 1-.43 2.949 4.74 4.74 0 0 1-1.289 2.071q-.879.86-2.246.937h-6.758a1.3 1.3 0 0 1-.898-.39 1.27 1.27 0 0 1-.371-.879q0-.547.352-.938.37-.39.917-.41h6.094a1.74 1.74 0 0 0 1.231-.566q.488-.528.625-1.231a.4.4 0 0 0 .019-.117h-5.761q-1.368-.078-2.266-.918a5 5 0 0 1-1.27-2.09 9.5 9.5 0 0 1-.39-2.617v-2.207q.02-.528.39-.879a1.3 1.3 0 0 1 .899-.391M65.563 141.5a3.15 3.15 0 0 1 2.25.891q.937.843.984 2.156v16.406q0 2.016 1.219 4.735.515 1.172-.047 2.343a3.38 3.38 0 0 1-1.688 1.735q-2.718.89-4.078-1.547-1.687-3.89-1.734-7.453v-16.219q.046-1.266.937-2.109a3.1 3.1 0 0 1 2.157-.938m27.843 25.266q0 1.313-.937 2.25-.89.89-2.203.89h-7.594q-.282 0-.563-.047h-.28q-3.282-.093-5.391-1.5-2.11-1.406-3.047-3.187-.938-1.829-.938-3.656 0-1.875 1.406-4.125 1.407-2.25 3.422-2.719 2.016-.47 3.047 1.172 1.032 1.64-.094 2.953-1.125 1.313-1.218 1.781a5 5 0 0 0-.094.938q0 .469.281.937.282.422.844.797.609.328 1.5.375h8.719q1.312 0 2.203.937.937.891.937 2.204m-19.594-21.375q0-1.313.891-2.203a3.07 3.07 0 0 1 2.25-.938h13.125a3.15 3.15 0 0 1 2.25.891q.89.938.89 2.25t-.937 2.25q-.89.89-2.203.89H76.953q-1.313 0-2.203-.937-.937-.89-.937-2.203m39.796-.516q0-1.406.985-2.391.984-.984 2.39-.984t2.391.984q.984.986.984 2.391t-.984 2.391q-.984.984-2.391.984-1.406 0-2.39-.984a3.26 3.26 0 0 1-.985-2.391m8.063 0q0-1.406.984-2.391.984-.984 2.391-.984 1.405 0 2.391.984.984.986.984 2.391t-.984 2.391q-.985.984-2.391.984t-2.391-.984q-.984-.986-.984-2.391m-8.063 26.109q-2.437 0-4.828-.562a21 21 0 0 1-4.5-1.641 14 14 0 0 1-3.843-2.953q-1.641-1.828-1.782-4.359v-16.922q.282-2.813 3.094-3.047a3.15 3.15 0 0 1 2.25.891q.984.843.984 2.156v15.469q.094 1.452 1.078 2.437a8.9 8.9 0 0 0 2.25 1.5q1.266.562 2.579.844 1.359.28 2.718.281 1.36 0 2.672-.281a12 12 0 0 0 2.578-.844 7.9 7.9 0 0 0 2.25-1.5q1.032-.984 1.125-2.437v-1.219q.235-2.813 3.047-3.047a3.15 3.15 0 0 1 2.25.891q.985.843.985 2.156v2.672q-.141 2.53-1.782 4.359a13.4 13.4 0 0 1-3.796 2.953 20.8 20.8 0 0 1-4.547 1.641 20.4 20.4 0 0 1-4.782.562m21.75-25.593q0-1.313.891-2.203a3.07 3.07 0 0 1 2.25-.938h13.594a3.15 3.15 0 0 1 2.25.891q.89.938.89 2.25t-.937 2.25q-.89.89-2.203.89H138.5q-1.312 0-2.203-.937-.938-.89-.938-2.203m.188 9.75q0-1.313.891-2.203a3.06 3.06 0 0 1 2.25-.938h12.093a3.15 3.15 0 0 1 2.25.891 3.15 3.15 0 0 1 .891 2.25q0 1.313-.938 2.25-.89.89-2.203.89h-12.093q-1.314 0-2.204-.937-.937-.89-.937-2.203m29.062-13.641q1.266.047 2.016.938.797.843.703 2.109l-1.594 11.859a24.5 24.5 0 0 1-1.734 6.282 14.3 14.3 0 0 1-3.797 5.015q-2.39 2.016-5.672 2.203h-8.812q-1.266-.047-2.157-.89-.843-.891-.89-2.157 0-1.313.844-2.25.89-.938 2.203-.984h8.062q1.782-.094 3.094-1.359 1.359-1.266 1.875-2.86.516-1.64.75-3.562l1.5-11.297a3.5 3.5 0 0 1 1.266-2.156q1.03-.891 2.343-.891m-11.25-4.5q0-1.406.985-2.391.984-.984 2.39-.984t2.391.984q.984.985.984 2.391t-.984 2.391q-.984.984-2.391.984-1.406 0-2.39-.984a3.26 3.26 0 0 1-.985-2.391m8.063 0q0-1.406.984-2.391.984-.984 2.391-.984 1.405 0 2.391.984.984.985.984 2.391t-.984 2.391q-.986.984-2.391.984-1.407 0-2.391-.984-.984-.985-.984-2.391m10.875 14.484q0-1.077.703-1.781.75-.75 1.781-.75h2.766q.093-.89.797-1.547.75-.702 1.828-.703.984.047 1.734.75.657.657.703 1.5h9.141q2.532.14 4.219 1.453t2.437 3q.75 1.688.75 3.422 0 1.828-.75 3.516-.702 1.688-2.437 3-1.688 1.312-4.313 1.312h-3.515q-1.032 0-1.782-.75t-.75-1.781q0-1.03.75-1.781t1.782-.75h3.75q.703 0 1.171-.469.469-.47.704-1.078a3.5 3.5 0 0 0 .234-1.266q0-.562-.234-1.172a3 3 0 0 0-.704-1.125 1.76 1.76 0 0 0-1.171-.515h-9.282v14.015q-.187 2.25-2.437 2.438a2.74 2.74 0 0 1-1.875-.703 2.28 2.28 0 0 1-.75-1.735v-14.015h-2.766q-1.03 0-1.734-.75a2.28 2.28 0 0 1-.75-1.735m32.578 4.407q0-1.313.891-2.203a3.07 3.07 0 0 1 2.25-.938h23.531a3.15 3.15 0 0 1 2.25.891 3.15 3.15 0 0 1 .891 2.25q0 1.313-.938 2.25-.89.89-2.203.89h-23.531q-1.313 0-2.204-.937-.936-.89-.937-2.203m35.531 10.875q0-1.313.891-2.204.937-.936 2.25-.937h22.687a3.15 3.15 0 0 1 2.25.891 3.15 3.15 0 0 1 .891 2.25q0 1.313-.937 2.25-.891.89-2.204.89h-22.687q-1.312 0-2.203-.937-.938-.89-.938-2.203m0-21.375q0-1.313.891-2.203a3.07 3.07 0 0 1 2.25-.938h22.687a3.15 3.15 0 0 1 2.25.891 3.15 3.15 0 0 1 .891 2.25q0 1.313-.937 2.25-.891.89-2.204.89h-22.687q-1.312 0-2.203-.937-.938-.89-.938-2.203m34.875 10.5q0-1.313.891-2.203a3.07 3.07 0 0 1 2.25-.938h23.531a3.15 3.15 0 0 1 2.25.891 3.15 3.15 0 0 1 .891 2.25q0 1.313-.938 2.25-.89.89-2.203.89h-23.531q-1.313 0-2.203-.937-.938-.89-.938-2.203"/></svg>