<svg width="356" height="277" viewBox="0 0 356 277" fill="none" xmlns="http://www.w3.org/2000/svg">
<path d="M184 267C184 268.657 182.657 270 181 270C179.343 270 178 268.657 178 267C178 265.343 179.343 264 181 264C182.657 264 184 265.343 184 267Z" fill="#9ABBA1"/>
<path fill-rule="evenodd" clip-rule="evenodd" d="M180.5 277C249.259 277 305 221.259 305 152.5C305 83.7405 249.259 28 180.5 28C111.741 28 56 83.7405 56 152.5C56 221.259 111.741 277 180.5 277ZM180.5 274C247.603 274 302 219.603 302 152.5C302 85.3974 247.603 31 180.5 31C150.663 31 123.338 41.755 102.19 59.5998L114.354 58.4032C115.12 58.3278 115.68 59.11 115.362 59.8112L110.223 71.1501C129.068 54.8562 153.633 45 180.5 45C239.871 45 288 93.1294 288 152.5C288 211.871 239.871 260 180.5 260C180.249 260 179.998 259.999 179.748 259.997L169.017 265.26C168.325 265.599 168.26 266.559 168.899 266.989L179.335 273.995C179.723 273.998 180.111 274 180.5 274ZM180.5 257C238.214 257 285 210.214 285 152.5C285 94.7862 238.214 48 180.5 48C122.786 48 76 94.7862 76 152.5C76 210.214 122.786 257 180.5 257ZM103 71C104.657 71 106 69.6569 106 68C106 66.3431 104.657 65 103 65C101.343 65 100 66.3431 100 68C100 69.6569 101.343 71 103 71Z" fill="#9ABBA1"/>
<path fill-rule="evenodd" clip-rule="evenodd" d="M279.941 153C279.941 207.124 236.065 251 181.941 251C127.818 251 83.9414 207.124 83.9414 153C83.9414 98.8761 127.818 55 181.941 55C236.065 55 279.941 98.8761 279.941 153ZM154.121 84.5815C154.657 86.3185 152.745 88.4512 149.85 89.3449C146.955 90.2387 144.173 89.5551 143.637 87.818C143.101 86.081 145.013 83.9483 147.908 83.0546C150.803 82.1609 153.585 82.8445 154.121 84.5815ZM214.595 89.3449C211.7 88.4512 209.788 86.3185 210.324 84.5815C210.86 82.8445 213.642 82.1609 216.537 83.0546C219.432 83.9483 221.344 86.081 220.808 87.818C220.272 89.5551 217.49 90.2387 214.595 89.3449ZM127.004 98.9113C127.481 98.7438 127.986 98.8322 128.37 99.1046C128.614 99.2781 128.809 99.5262 128.916 99.8304L131.031 105.862C131.43 107.001 132.943 107.226 133.656 106.252L135.531 103.694C136.662 102.15 138.633 101.497 140.454 102.02C143.514 102.899 149.259 104.462 153.255 105.043C160.153 106.047 167.33 106.459 172.797 106.619C175.527 106.699 177.823 106.716 179.435 106.713C180.24 106.712 180.875 106.705 181.307 106.699C181.523 106.696 181.688 106.693 181.799 106.691L181.923 106.688L181.953 106.688C181.969 106.687 181.984 106.687 182 106.687C182.012 106.687 182.025 106.687 182.037 106.687C182.04 106.687 182.044 106.688 182.047 106.688L182.077 106.688L182.201 106.691C182.312 106.693 182.477 106.696 182.693 106.699C183.125 106.705 183.76 106.712 184.565 106.713C186.177 106.716 188.473 106.699 191.203 106.619C196.67 106.459 203.847 106.047 210.745 105.043C214.741 104.462 220.486 102.899 223.546 102.02C225.367 101.497 227.338 102.15 228.469 103.694L230.344 106.252C231.057 107.226 232.57 107.001 232.969 105.862L235.085 99.8304C235.191 99.5262 235.386 99.2781 235.63 99.1046C236.014 98.8322 236.519 98.7438 236.996 98.9113C237.778 99.1854 238.19 100.041 237.915 100.823L235.8 106.855C234.602 110.272 230.064 110.946 227.924 108.025L226.049 105.467C225.672 104.952 225.005 104.722 224.374 104.904C221.328 105.779 215.4 107.398 211.177 108.012C204.12 109.039 196.817 109.456 191.291 109.618C188.525 109.699 186.198 109.716 184.56 109.713C183.741 109.712 183.094 109.705 182.651 109.699C182.429 109.696 182.259 109.693 182.143 109.69L182.01 109.688L182 109.687L181.99 109.688L181.857 109.69C181.742 109.693 181.571 109.696 181.349 109.699C180.906 109.705 180.259 109.712 179.44 109.713C177.802 109.716 175.475 109.699 172.709 109.618C167.183 109.456 159.88 109.039 152.823 108.012C148.6 107.398 142.672 105.779 139.626 104.904C138.995 104.722 138.328 104.952 137.951 105.467L136.076 108.025C133.936 110.946 129.398 110.272 128.2 106.855L126.085 100.823C125.81 100.041 126.222 99.1854 127.004 98.9113Z" fill="#9ABBA1"/>
<path d="M187.314 64.9496C189.931 66.4527 188.959 70.2918 185.941 70.258C168.199 70.0592 133.234 68.1846 123.36 56.8206C113.623 45.614 114.147 33.3733 115.164 27.512C115.485 25.6597 117.508 24.8662 119.139 25.8023L156.216 47.0929L187.314 64.9496Z" fill="#9ABBA1"/>
<path d="M176.686 64.9496C174.069 66.4527 175.041 70.2918 178.059 70.258C195.801 70.0592 230.766 68.1846 240.64 56.8206C250.377 45.614 249.853 33.3733 248.836 27.512C248.515 25.6597 246.492 24.8662 244.861 25.8023L207.784 47.0929L176.686 64.9496Z" fill="#9ABBA1"/>
<circle cx="180.5" cy="26.5" r="26" fill="#9ABBA1" stroke="#9ABBA1"/>
<path d="M104.746 210C122.231 233.658 150.324 249 182 249C213.676 249 241.769 233.658 259.254 210H257.381C256.839 210.716 256.287 211.423 255.725 212.123L256.85 210H253.455L247.625 220.997C244.437 224.075 241.032 226.931 237.437 229.539L247.796 210H244.4L232.148 233.111C229.546 234.744 226.858 236.253 224.093 237.631L238.741 210H235.346L219.584 239.731C217.259 240.74 214.885 241.658 212.467 242.481L229.686 210H226.291L208.391 243.766C206.244 244.389 204.066 244.938 201.86 245.41L220.632 210H217.236L198.079 246.138C196.064 246.483 194.028 246.764 191.973 246.98L211.577 210H208.182L188.415 247.286C186.506 247.414 184.582 247.485 182.644 247.498L202.523 210H199.127L179.268 247.461C177.423 247.409 175.592 247.304 173.775 247.147L193.468 210H190.072L170.556 246.814C168.793 246.601 167.044 246.34 165.312 246.031L184.413 210H181.018L162.235 245.43C160.546 245.07 158.873 244.666 157.219 244.217L175.359 210H171.963L154.274 243.367C152.654 242.871 151.053 242.332 149.471 241.752L166.304 210H162.908L146.651 240.667C145.097 240.039 143.564 239.372 142.052 238.666L157.249 210H153.854L139.353 237.353C137.864 236.598 136.397 235.805 134.954 234.975L148.195 210H144.799L132.375 233.437C130.949 232.555 129.549 231.637 128.175 230.683L139.14 210H135.744L125.716 228.917C124.355 227.907 123.023 226.861 121.72 225.78L130.085 210H126.69L119.385 223.78C118.091 222.635 116.83 221.455 115.601 220.242L121.031 210H117.635L113.398 217.993C112.176 216.704 110.991 215.38 109.843 214.024L111.976 210H108.581L107.783 211.505C107.39 211.007 107.002 210.506 106.619 210H104.746Z" fill="#799C6D"/>
<path d="M248.164 223.558C230.944 239.943 207.646 250 182 250C158.889 250 137.685 241.833 121.117 228.228C130.762 225.973 141.332 219.613 141.332 219.613C141.332 219.613 159.053 231.718 171.539 231.896C184.48 232.081 202.979 219.613 202.979 219.613C202.979 219.613 216.785 231.481 227.021 231.896C234.012 232.18 242.684 227.256 248.164 223.558Z" fill="#799C6D" stroke="#9ABBA1" stroke-width="2"/>
<path d="M218.73 240.867C215.629 239.657 212.482 237.866 209.71 236.045C207.376 234.512 205.354 232.99 203.917 231.851C203.198 231.282 202.627 230.809 202.236 230.48C202.041 230.315 201.891 230.187 201.79 230.1C201.74 230.056 201.702 230.023 201.677 230.001L201.649 229.977L201.643 229.971L201.053 229.45L200.406 229.899L200.397 229.905L200.359 229.931C200.326 229.954 200.274 229.989 200.207 230.035C200.071 230.127 199.87 230.263 199.608 230.436C199.083 230.782 198.318 231.277 197.359 231.872C195.44 233.061 192.748 234.645 189.657 236.222C183.428 239.4 175.759 242.455 169.553 242.364C163.565 242.276 156.195 239.218 150.217 236.087C147.251 234.533 144.669 232.984 142.829 231.823C141.91 231.243 141.176 230.761 140.674 230.424C140.423 230.256 140.23 230.124 140.1 230.035C140.035 229.99 139.986 229.956 139.954 229.934L139.918 229.909L139.909 229.903L139.367 229.521L138.805 229.869L138.796 229.875L138.765 229.894C138.737 229.911 138.695 229.936 138.639 229.97C138.527 230.038 138.361 230.138 138.144 230.266C137.712 230.522 137.08 230.889 136.288 231.33C134.703 232.213 132.481 233.393 129.933 234.577C129.825 234.627 129.717 234.677 129.609 234.727C130.292 235.149 130.98 235.562 131.674 235.967C133.899 234.904 135.834 233.873 137.261 233.077C138.07 232.627 138.716 232.251 139.162 231.988L139.297 231.908C139.377 231.962 139.465 232.021 139.561 232.086C140.077 232.431 140.825 232.924 141.762 233.515C143.635 234.696 146.264 236.274 149.289 237.858C155.293 241.003 163.027 244.268 169.524 244.364C176.26 244.463 184.31 241.195 190.566 238.003C193.718 236.395 196.459 234.782 198.413 233.571C199.39 232.966 200.171 232.46 200.709 232.105C200.779 232.059 200.845 232.015 200.906 231.975L200.947 232.01C201.352 232.35 201.939 232.836 202.675 233.419C204.146 234.584 206.216 236.143 208.612 237.717C210.877 239.204 213.477 240.736 216.166 241.954C217.027 241.604 217.882 241.242 218.73 240.867Z" fill="#9ABBA1"/>
<path d="M356 136H297V224H356L342 180.5L356 136Z" fill="#62CAD3"/>
<path d="M0 136H59V224H0L14 180.5L0 136Z" fill="#62CAD3"/>
<path d="M36 122H317V210H36V122Z" fill="#00F4D7"/>
<path d="M114.139 181.801C114.816 181.801 115.48 181.879 116.131 182.035C116.795 182.191 117.426 182.426 118.025 182.738C118.624 183.038 119.152 183.441 119.607 183.949C120.076 184.457 120.33 185.062 120.369 185.766V186.586V189.926C120.291 190.707 119.861 191.13 119.08 191.195C118.715 191.195 118.396 191.078 118.123 190.844C117.863 190.596 117.732 190.29 117.732 189.926V189.066V186.371C117.706 185.967 117.55 185.635 117.264 185.375C116.99 185.102 116.678 184.887 116.326 184.73C115.988 184.574 115.63 184.457 115.252 184.379C114.887 184.301 114.516 184.262 114.139 184.262C113.761 184.262 113.383 184.301 113.006 184.379C112.641 184.457 112.283 184.574 111.932 184.73C111.593 184.887 111.281 185.102 110.994 185.375C110.721 185.635 110.571 185.967 110.545 186.371V189.066V189.926C110.48 190.707 110.057 191.13 109.275 191.195C108.911 191.195 108.592 191.078 108.318 190.844C108.058 190.596 107.928 190.29 107.928 189.926V186.586V185.766C107.967 185.062 108.214 184.457 108.67 183.949C109.126 183.441 109.653 183.038 110.252 182.738C110.851 182.426 111.476 182.191 112.127 182.035C112.791 181.879 113.462 181.801 114.139 181.801Z" fill="#5E6B3E"/>
<path d="M124.197 181.898C124.549 181.911 124.848 182.042 125.096 182.289C125.343 182.523 125.473 182.816 125.486 183.168V189.926C125.408 190.707 124.979 191.13 124.197 191.195C123.833 191.195 123.514 191.078 123.24 190.844C122.98 190.596 122.85 190.29 122.85 189.926V183.168C122.863 182.803 122.999 182.504 123.26 182.27C123.52 182.022 123.833 181.898 124.197 181.898ZM122.557 179.359C122.557 178.995 122.713 178.682 123.025 178.422C123.338 178.161 123.715 178.031 124.158 178.031C124.601 178.031 124.979 178.161 125.291 178.422C125.604 178.682 125.76 178.995 125.76 179.359C125.76 179.737 125.604 180.056 125.291 180.316C124.979 180.577 124.601 180.707 124.158 180.707C123.715 180.707 123.338 180.577 123.025 180.316C122.713 180.056 122.557 179.737 122.557 179.359Z" fill="#5E6B3E"/>
<path d="M129.217 181.898C129.568 181.911 129.868 182.042 130.115 182.289C130.363 182.523 130.493 182.816 130.506 183.168V189.926C130.506 190.967 130.363 191.951 130.076 192.875C129.816 193.695 129.386 194.385 128.787 194.945C128.201 195.518 127.452 195.831 126.541 195.883H125.799C125.447 195.87 125.154 195.74 124.92 195.492C124.673 195.258 124.542 194.965 124.529 194.613C124.529 194.249 124.653 193.936 124.9 193.676C125.135 193.415 125.434 193.279 125.799 193.266H125.877C126.372 193.24 126.782 193.051 127.107 192.699C127.433 192.348 127.641 191.938 127.732 191.469C127.824 191 127.869 190.395 127.869 189.652V183.168C127.882 182.803 128.019 182.504 128.279 182.27C128.54 182.022 128.852 181.898 129.217 181.898ZM127.576 179.359C127.576 178.995 127.732 178.682 128.045 178.422C128.357 178.161 128.735 178.031 129.178 178.031C129.62 178.031 129.998 178.161 130.311 178.422C130.623 178.682 130.779 178.995 130.779 179.359C130.779 179.737 130.623 180.056 130.311 180.316C129.998 180.577 129.62 180.707 129.178 180.707C128.735 180.707 128.357 180.577 128.045 180.316C127.732 180.056 127.576 179.737 127.576 179.359Z" fill="#5E6B3E"/>
<path d="M134.256 181.898C134.607 181.911 134.907 182.042 135.154 182.289C135.402 182.523 135.532 182.816 135.545 183.168V189.926C135.467 190.707 135.037 191.13 134.256 191.195C133.891 191.195 133.572 191.078 133.299 190.844C133.038 190.596 132.908 190.29 132.908 189.926V183.168C132.921 182.803 133.058 182.504 133.318 182.27C133.579 182.022 133.891 181.898 134.256 181.898ZM132.615 179.359C132.615 178.995 132.771 178.682 133.084 178.422C133.396 178.161 133.774 178.031 134.217 178.031C134.66 178.031 135.037 178.161 135.35 178.422C135.662 178.682 135.818 178.995 135.818 179.359C135.818 179.737 135.662 180.056 135.35 180.316C135.037 180.577 134.66 180.707 134.217 180.707C133.774 180.707 133.396 180.577 133.084 180.316C132.771 180.056 132.615 179.737 132.615 179.359Z" fill="#5E6B3E"/>
<path d="M148.137 183.94C148.137 183.447 148.257 183.1 148.497 182.9C148.737 182.7 149.024 182.6 149.357 182.6C149.704 182.6 149.997 182.7 150.237 182.9C150.491 183.1 150.617 183.447 150.617 183.94C150.617 184.42 150.491 184.767 150.237 184.98C149.997 185.193 149.704 185.3 149.357 185.3C149.024 185.3 148.737 185.193 148.497 184.98C148.257 184.767 148.137 184.42 148.137 183.94Z" fill="#5E6B3E"/>
<path d="M164.627 181.898C164.979 181.911 165.278 182.042 165.525 182.289C165.773 182.523 165.903 182.816 165.916 183.168V189.926C165.916 190.967 165.773 191.951 165.486 192.875C165.226 193.695 164.796 194.385 164.197 194.945C163.611 195.518 162.863 195.831 161.951 195.883H161.209C160.857 195.87 160.564 195.74 160.33 195.492C160.083 195.258 159.952 194.965 159.939 194.613C159.939 194.249 160.063 193.936 160.311 193.676C160.545 193.415 160.844 193.279 161.209 193.266H161.287C161.782 193.24 162.192 193.051 162.518 192.699C162.843 192.348 163.051 191.938 163.143 191.469C163.234 191 163.279 190.395 163.279 189.652V183.168C163.292 182.803 163.429 182.504 163.689 182.27C163.95 182.022 164.262 181.898 164.627 181.898ZM162.986 179.359C162.986 178.995 163.143 178.682 163.455 178.422C163.768 178.161 164.145 178.031 164.588 178.031C165.031 178.031 165.408 178.161 165.721 178.422C166.033 178.682 166.189 178.995 166.189 179.359C166.189 179.737 166.033 180.056 165.721 180.316C165.408 180.577 165.031 180.707 164.588 180.707C164.145 180.707 163.768 180.577 163.455 180.316C163.143 180.056 162.986 179.737 162.986 179.359Z" fill="#5E6B3E"/>
<path d="M172.361 190.961C171.215 190.922 170.35 190.655 169.764 190.16C169.178 189.652 168.755 189.086 168.494 188.461C168.234 187.823 168.104 187.178 168.104 186.527C168.104 185.85 168.227 185.199 168.475 184.574C168.735 183.936 169.158 183.37 169.744 182.875C170.343 182.367 171.098 182.107 172.01 182.094H178.338C179.249 182.107 179.998 182.367 180.584 182.875C181.183 183.37 181.606 183.936 181.854 184.574C182.114 185.199 182.244 185.85 182.244 186.527C182.244 187.178 182.114 187.823 181.854 188.461C181.593 189.086 181.17 189.652 180.584 190.16C179.998 190.655 179.132 190.922 177.986 190.961H172.361ZM171.932 184.711C171.684 184.711 171.469 184.815 171.287 185.023C171.105 185.219 170.968 185.453 170.877 185.727C170.799 185.987 170.76 186.247 170.76 186.508C170.76 186.781 170.799 187.055 170.877 187.328C170.968 187.589 171.105 187.823 171.287 188.031C171.469 188.227 171.684 188.331 171.932 188.344H178.416C178.663 188.331 178.878 188.227 179.061 188.031C179.243 187.823 179.373 187.589 179.451 187.328C179.542 187.055 179.588 186.781 179.588 186.508C179.588 186.247 179.542 185.987 179.451 185.727C179.373 185.453 179.243 185.219 179.061 185.023C178.878 184.815 178.663 184.711 178.416 184.711H171.932Z" fill="#5E6B3E"/>
<path d="M190.721 191.293C190.044 191.293 189.373 191.215 188.709 191.059C188.058 190.902 187.433 190.674 186.834 190.375C186.235 190.062 185.708 189.652 185.252 189.145C184.796 188.637 184.549 188.031 184.51 187.328V186.508V183.168C184.51 182.803 184.64 182.504 184.9 182.27C185.174 182.022 185.493 181.898 185.857 181.898C186.639 181.964 187.062 182.387 187.127 183.168V184.027V186.723C187.153 187.126 187.303 187.465 187.576 187.738C187.863 187.999 188.175 188.207 188.514 188.363C188.865 188.52 189.223 188.637 189.588 188.715C189.965 188.793 190.343 188.832 190.721 188.832C191.098 188.832 191.469 188.793 191.834 188.715C192.212 188.637 192.57 188.52 192.908 188.363C193.26 188.207 193.572 187.999 193.846 187.738C194.132 187.465 194.288 187.126 194.314 186.723V184.027V183.168C194.314 182.803 194.445 182.504 194.705 182.27C194.979 182.022 195.298 181.898 195.662 181.898C196.443 181.964 196.873 182.387 196.951 183.168V186.508V187.328C196.912 188.031 196.658 188.637 196.189 189.145C195.734 189.652 195.206 190.062 194.607 190.375C194.008 190.674 193.377 190.902 192.713 191.059C192.062 191.215 191.398 191.293 190.721 191.293Z" fill="#5E6B3E"/>
<path d="M199.861 184.555C200.109 183.93 200.525 183.37 201.111 182.875C201.71 182.367 202.465 182.107 203.377 182.094H210.721C211.085 182.094 211.391 182.224 211.639 182.484C211.899 182.732 212.029 183.038 212.029 183.402C212.029 183.767 211.899 184.079 211.639 184.34C211.391 184.587 211.085 184.711 210.721 184.711H203.299C203.051 184.711 202.837 184.815 202.654 185.023C202.472 185.219 202.329 185.453 202.225 185.727C202.133 186 202.088 186.26 202.088 186.508V189.926C202.01 190.707 201.58 191.13 200.799 191.195C200.434 191.195 200.115 191.078 199.842 190.844C199.581 190.596 199.451 190.29 199.451 189.926V186.527H199.471C199.471 185.85 199.601 185.193 199.861 184.555Z" fill="#5E6B3E"/>
<path d="M220.193 181.801C220.87 181.801 221.535 181.879 222.186 182.035C222.85 182.191 223.481 182.426 224.08 182.738C224.679 183.038 225.206 183.441 225.662 183.949C226.131 184.457 226.385 185.062 226.424 185.766V186.586V189.926C226.346 190.707 225.916 191.13 225.135 191.195C224.77 191.195 224.451 191.078 224.178 190.844C223.917 190.596 223.787 190.29 223.787 189.926V189.066V186.371C223.761 185.967 223.605 185.635 223.318 185.375C223.045 185.102 222.732 184.887 222.381 184.73C222.042 184.574 221.684 184.457 221.307 184.379C220.942 184.301 220.571 184.262 220.193 184.262C219.816 184.262 219.438 184.301 219.061 184.379C218.696 184.457 218.338 184.574 217.986 184.73C217.648 184.887 217.335 185.102 217.049 185.375C216.775 185.635 216.626 185.967 216.6 186.371V189.066V189.926C216.535 190.707 216.111 191.13 215.33 191.195C214.965 191.195 214.646 191.078 214.373 190.844C214.113 190.596 213.982 190.29 213.982 189.926V186.586V185.766C214.021 185.062 214.269 184.457 214.725 183.949C215.18 183.441 215.708 183.038 216.307 182.738C216.906 182.426 217.531 182.191 218.182 182.035C218.846 181.879 219.516 181.801 220.193 181.801Z" fill="#5E6B3E"/>
<path d="M232.908 190.961C231.762 190.922 230.896 190.655 230.311 190.16C229.725 189.652 229.301 189.086 229.041 188.461C228.781 187.823 228.65 187.178 228.65 186.527C228.65 185.85 228.774 185.199 229.021 184.574C229.282 183.936 229.705 183.37 230.291 182.875C230.89 182.367 231.645 182.107 232.557 182.094H239.979C240.343 182.094 240.649 182.217 240.896 182.465C241.157 182.699 241.287 182.986 241.287 183.324C241.287 183.676 241.157 183.975 240.896 184.223C240.649 184.457 240.343 184.574 239.979 184.574H232.674C232.387 184.574 232.133 184.672 231.912 184.867C231.704 185.062 231.548 185.316 231.443 185.629C231.352 185.941 231.307 186.247 231.307 186.547C231.307 186.872 231.352 187.191 231.443 187.504C231.548 187.816 231.704 188.07 231.912 188.266C232.133 188.448 232.387 188.546 232.674 188.559H239.979C240.343 188.559 240.649 188.676 240.896 188.91C241.157 189.145 241.287 189.424 241.287 189.75C241.287 190.089 241.157 190.375 240.896 190.609C240.649 190.844 240.343 190.961 239.979 190.961H232.908ZM241.053 186.488C241.053 186.736 240.942 186.951 240.721 187.133C240.525 187.302 240.278 187.387 239.979 187.387H233.592C233.292 187.387 233.038 187.302 232.83 187.133C232.622 186.951 232.518 186.736 232.518 186.488C232.518 186.254 232.622 186.046 232.83 185.863C233.038 185.694 233.292 185.609 233.592 185.609H239.979C240.278 185.609 240.532 185.701 240.74 185.883C240.949 186.052 241.053 186.254 241.053 186.488Z" fill="#5E6B3E"/>
<path d="M244.842 181.859C245.206 181.859 245.519 181.983 245.779 182.23C246.04 182.465 246.176 182.764 246.189 183.129V185.102C246.176 185.635 246.209 186.13 246.287 186.586C246.378 187.029 246.587 187.426 246.912 187.777C247.238 188.129 247.648 188.318 248.143 188.344H253.357V183.168C253.357 182.803 253.488 182.504 253.748 182.27C254.021 182.022 254.34 181.898 254.705 181.898C255.486 181.964 255.916 182.387 255.994 183.168V189.535C255.994 190.577 255.851 191.56 255.564 192.484C255.304 193.305 254.874 193.995 254.275 194.555C253.689 195.128 252.941 195.44 252.029 195.492H245.271C244.92 195.479 244.62 195.349 244.373 195.102C244.139 194.867 244.015 194.574 244.002 194.223C244.002 193.858 244.119 193.546 244.354 193.285C244.601 193.025 244.907 192.888 245.271 192.875H251.365C251.86 192.849 252.27 192.66 252.596 192.309C252.921 191.957 253.13 191.547 253.221 191.078C253.234 191.039 253.24 191 253.24 190.961H247.479C246.567 190.909 245.812 190.603 245.213 190.043C244.627 189.47 244.204 188.773 243.943 187.953C243.696 187.133 243.566 186.26 243.553 185.336V183.129C243.566 182.777 243.696 182.484 243.943 182.25C244.191 182.003 244.49 181.872 244.842 181.859Z" fill="#5E6B3E"/>
<path d="M65.5625 141.5C66.4375 141.5 67.1875 141.797 67.8125 142.391C68.4375 142.953 68.7656 143.672 68.7969 144.547V160.953C68.7969 162.297 69.2031 163.875 70.0156 165.688C70.3594 166.469 70.3438 167.25 69.9688 168.031C69.625 168.812 69.0625 169.391 68.2812 169.766C66.4688 170.359 65.1094 169.844 64.2031 168.219C63.0781 165.625 62.5 163.141 62.4688 160.766V144.547C62.5 143.703 62.8125 143 63.4062 142.438C64 141.844 64.7188 141.531 65.5625 141.5ZM93.4062 166.766C93.4062 167.641 93.0938 168.391 92.4688 169.016C91.875 169.609 91.1406 169.906 90.2656 169.906H82.6719C82.4844 169.906 82.2969 169.891 82.1094 169.859H81.8281C79.6406 169.797 77.8438 169.297 76.4375 168.359C75.0312 167.422 74.0156 166.359 73.3906 165.172C72.7656 163.953 72.4531 162.734 72.4531 161.516C72.4531 160.266 72.9219 158.891 73.8594 157.391C74.7969 155.891 75.9375 154.984 77.2812 154.672C78.625 154.359 79.6406 154.75 80.3281 155.844C81.0156 156.938 80.9844 157.922 80.2344 158.797C79.4844 159.672 79.0781 160.266 79.0156 160.578C78.9531 160.891 78.9219 161.203 78.9219 161.516C78.9219 161.828 79.0156 162.141 79.2031 162.453C79.3906 162.734 79.6719 163 80.0469 163.25C80.4531 163.469 80.9531 163.594 81.5469 163.625H90.2656C91.1406 163.625 91.875 163.938 92.4688 164.562C93.0938 165.156 93.4062 165.891 93.4062 166.766ZM73.8125 145.391C73.8125 144.516 74.1094 143.781 74.7031 143.188C75.3281 142.562 76.0781 142.25 76.9531 142.25H90.0781C90.9531 142.25 91.7031 142.547 92.3281 143.141C92.9219 143.766 93.2188 144.516 93.2188 145.391C93.2188 146.266 92.9062 147.016 92.2812 147.641C91.6875 148.234 90.9531 148.531 90.0781 148.531H76.9531C76.0781 148.531 75.3438 148.219 74.75 147.594C74.125 147 73.8125 146.266 73.8125 145.391Z" fill="#5E6B3E"/>
<path d="M113.609 144.875C113.609 143.938 113.938 143.141 114.594 142.484C115.25 141.828 116.047 141.5 116.984 141.5C117.922 141.5 118.719 141.828 119.375 142.484C120.031 143.141 120.359 143.938 120.359 144.875C120.359 145.812 120.031 146.609 119.375 147.266C118.719 147.922 117.922 148.25 116.984 148.25C116.047 148.25 115.25 147.922 114.594 147.266C113.938 146.609 113.609 145.812 113.609 144.875ZM121.672 144.875C121.672 143.938 122 143.141 122.656 142.484C123.312 141.828 124.109 141.5 125.047 141.5C125.984 141.5 126.781 141.828 127.438 142.484C128.094 143.141 128.422 143.938 128.422 144.875C128.422 145.812 128.094 146.609 127.438 147.266C126.781 147.922 125.984 148.25 125.047 148.25C124.109 148.25 123.312 147.922 122.656 147.266C122 146.609 121.672 145.812 121.672 144.875ZM113.609 170.984C111.984 170.984 110.375 170.797 108.781 170.422C107.219 170.047 105.719 169.5 104.281 168.781C102.844 168.031 101.562 167.047 100.438 165.828C99.3438 164.609 98.75 163.156 98.6562 161.469V159.5V144.547C98.8438 142.672 99.875 141.656 101.75 141.5C102.625 141.5 103.375 141.797 104 142.391C104.656 142.953 104.984 143.672 104.984 144.547V160.016C105.047 160.984 105.406 161.797 106.062 162.453C106.75 163.078 107.5 163.578 108.312 163.953C109.156 164.328 110.016 164.609 110.891 164.797C111.797 164.984 112.703 165.078 113.609 165.078C114.516 165.078 115.406 164.984 116.281 164.797C117.188 164.609 118.047 164.328 118.859 163.953C119.703 163.578 120.453 163.078 121.109 162.453C121.797 161.797 122.172 160.984 122.234 160.016V158.797C122.391 156.922 123.406 155.906 125.281 155.75C126.156 155.75 126.906 156.047 127.531 156.641C128.188 157.203 128.516 157.922 128.516 158.797V159.5V161.469C128.422 163.156 127.828 164.609 126.734 165.828C125.641 167.047 124.375 168.031 122.938 168.781C121.5 169.5 119.984 170.047 118.391 170.422C116.828 170.797 115.234 170.984 113.609 170.984Z" fill="#5E6B3E"/>
<path d="M135.359 145.391C135.359 144.516 135.656 143.781 136.25 143.188C136.875 142.562 137.625 142.25 138.5 142.25H152.094C152.969 142.25 153.719 142.547 154.344 143.141C154.938 143.766 155.234 144.516 155.234 145.391C155.234 146.266 154.922 147.016 154.297 147.641C153.703 148.234 152.969 148.531 152.094 148.531H138.5C137.625 148.531 136.891 148.219 136.297 147.594C135.672 147 135.359 146.266 135.359 145.391ZM135.547 155.141C135.547 154.266 135.844 153.531 136.438 152.938C137.062 152.312 137.812 152 138.688 152H150.781C151.656 152 152.406 152.297 153.031 152.891C153.625 153.516 153.922 154.266 153.922 155.141C153.922 156.016 153.609 156.766 152.984 157.391C152.391 157.984 151.656 158.281 150.781 158.281H138.688C137.812 158.281 137.078 157.969 136.484 157.344C135.859 156.75 135.547 156.016 135.547 155.141ZM164.609 141.5C165.453 141.531 166.125 141.844 166.625 142.438C167.156 143 167.391 143.703 167.328 144.547L165.734 156.406C165.422 158.625 164.844 160.719 164 162.688C163.094 164.656 161.828 166.328 160.203 167.703C158.609 169.047 156.719 169.781 154.531 169.906H145.719C144.875 169.875 144.156 169.578 143.562 169.016C143 168.422 142.703 167.703 142.672 166.859C142.672 165.984 142.953 165.234 143.516 164.609C144.109 163.984 144.844 163.656 145.719 163.625H153.781C154.969 163.562 156 163.109 156.875 162.266C157.781 161.422 158.406 160.469 158.75 159.406C159.094 158.312 159.344 157.125 159.5 155.844L161 144.547C161.156 143.672 161.578 142.953 162.266 142.391C162.953 141.797 163.734 141.5 164.609 141.5ZM153.359 137C153.359 136.062 153.688 135.266 154.344 134.609C155 133.953 155.797 133.625 156.734 133.625C157.672 133.625 158.469 133.953 159.125 134.609C159.781 135.266 160.109 136.062 160.109 137C160.109 137.938 159.781 138.734 159.125 139.391C158.469 140.047 157.672 140.375 156.734 140.375C155.797 140.375 155 140.047 154.344 139.391C153.688 138.734 153.359 137.938 153.359 137ZM161.422 137C161.422 136.062 161.75 135.266 162.406 134.609C163.062 133.953 163.859 133.625 164.797 133.625C165.734 133.625 166.531 133.953 167.188 134.609C167.844 135.266 168.172 136.062 168.172 137C168.172 137.938 167.844 138.734 167.188 139.391C166.531 140.047 165.734 140.375 164.797 140.375C163.859 140.375 163.062 140.047 162.406 139.391C161.75 138.734 161.422 137.938 161.422 137Z" fill="#5E6B3E"/>
<path d="M172.297 151.484C172.297 150.766 172.531 150.172 173 149.703C173.5 149.203 174.094 148.953 174.781 148.953H177.547C177.609 148.359 177.875 147.844 178.344 147.406C178.844 146.938 179.453 146.703 180.172 146.703C180.828 146.734 181.406 146.984 181.906 147.453C182.344 147.891 182.578 148.391 182.609 148.953H191.75C193.438 149.047 194.844 149.531 195.969 150.406C197.094 151.281 197.906 152.281 198.406 153.406C198.906 154.531 199.156 155.672 199.156 156.828C199.156 158.047 198.906 159.219 198.406 160.344C197.938 161.469 197.125 162.469 195.969 163.344C194.844 164.219 193.406 164.656 191.656 164.656H188.141C187.453 164.656 186.859 164.406 186.359 163.906C185.859 163.406 185.609 162.812 185.609 162.125C185.609 161.438 185.859 160.844 186.359 160.344C186.859 159.844 187.453 159.594 188.141 159.594H191.891C192.359 159.594 192.75 159.438 193.062 159.125C193.375 158.812 193.609 158.453 193.766 158.047C193.922 157.641 194 157.219 194 156.781C194 156.406 193.922 156.016 193.766 155.609C193.609 155.172 193.375 154.797 193.062 154.484C192.75 154.172 192.359 154 191.891 153.969H182.609V167.984C182.484 169.484 181.672 170.297 180.172 170.422C179.453 170.422 178.828 170.188 178.297 169.719C177.797 169.25 177.547 168.672 177.547 167.984V153.969H174.781C174.094 153.969 173.516 153.719 173.047 153.219C172.547 152.75 172.297 152.172 172.297 151.484Z" fill="#5E6B3E"/>
<path d="M204.875 155.891C204.875 155.016 205.172 154.281 205.766 153.688C206.391 153.062 207.141 152.75 208.016 152.75H231.547C232.422 152.75 233.172 153.047 233.797 153.641C234.391 154.266 234.688 155.016 234.688 155.891C234.688 156.766 234.375 157.516 233.75 158.141C233.156 158.734 232.422 159.031 231.547 159.031H208.016C207.141 159.031 206.406 158.719 205.812 158.094C205.188 157.5 204.875 156.766 204.875 155.891Z" fill="#5E6B3E"/>
<path d="M240.406 166.766C240.406 165.891 240.703 165.156 241.297 164.562C241.922 163.938 242.672 163.625 243.547 163.625H266.234C267.109 163.625 267.859 163.922 268.484 164.516C269.078 165.141 269.375 165.891 269.375 166.766C269.375 167.641 269.062 168.391 268.438 169.016C267.844 169.609 267.109 169.906 266.234 169.906H243.547C242.672 169.906 241.938 169.594 241.344 168.969C240.719 168.375 240.406 167.641 240.406 166.766ZM240.406 145.391C240.406 144.516 240.703 143.781 241.297 143.188C241.922 142.562 242.672 142.25 243.547 142.25H266.234C267.109 142.25 267.859 142.547 268.484 143.141C269.078 143.766 269.375 144.516 269.375 145.391C269.375 146.266 269.062 147.016 268.438 147.641C267.844 148.234 267.109 148.531 266.234 148.531H243.547C242.672 148.531 241.938 148.219 241.344 147.594C240.719 147 240.406 146.266 240.406 145.391Z" fill="#5E6B3E"/>
<path d="M275.281 155.891C275.281 155.016 275.578 154.281 276.172 153.688C276.797 153.062 277.547 152.75 278.422 152.75H301.953C302.828 152.75 303.578 153.047 304.203 153.641C304.797 154.266 305.094 155.016 305.094 155.891C305.094 156.766 304.781 157.516 304.156 158.141C303.562 158.734 302.828 159.031 301.953 159.031H278.422C277.547 159.031 276.812 158.719 276.219 158.094C275.594 157.5 275.281 156.766 275.281 155.891Z" fill="#5E6B3E"/>
</svg>
