<svg xmlns="http://www.w3.org/2000/svg" fill="none" viewBox="0 0 35 32"><path fill="#6366f1" d="M15.258 26.865a4.04 4.04 0 0 1-1.133 2.917A4 4 0 0 1 11.253 31a4 4 0 0 1-2.872-1.218 4.03 4.03 0 0 1-1.133-2.917 3.97 3.97 0 0 1 2.027-3.414c-.024.109.09-.055 0 0l1.86-1.652a8.5 8.5 0 0 0 2.304-5.793c0-2.926-1.711-5.901-4.17-7.457.094.055-.036-.094 0 0A3.95 3.95 0 0 1 7.8 7.116a4 4 0 0 1-.557-1.98 4.04 4.04 0 0 1 1.133-2.918A4 4 0 0 1 11.247 1a4 4 0 0 1 2.872 1.218 4.03 4.03 0 0 1 1.133 2.917 8.52 8.52 0 0 0 2.347 5.832l.817.8q.49.428 1.024.798c.621.33 1.142.826 1.504 1.431a3.9 3.9 0 0 1-1.504 5.442c.033-.067-.063.036 0 0a9 9 0 0 0-3.024 3.183 9 9 0 0 0-1.158 4.244m4.483-21.742c0 .796.235 1.575.676 2.237a4 4 0 0 0 1.798 1.482 3.99 3.99 0 0 0 4.366-.873 4.04 4.04 0 0 0 .869-4.386 4 4 0 0 0-1.476-1.806 3.994 3.994 0 0 0-5.058.501 4.04 4.04 0 0 0-1.175 2.845m4.007 17.717c-.792 0-1.567.236-2.226.678a4 4 0 0 0-1.476 1.806 4.04 4.04 0 0 0 .869 4.387 3.99 3.99 0 0 0 4.366.873A4 4 0 0 0 27.08 29.1a4.04 4.04 0 0 0-.5-5.082 4 4 0 0 0-2.832-1.18zM34 15.994a4.04 4.04 0 0 0-.675-2.236 4 4 0 0 0-1.798-1.483 3.99 3.99 0 0 0-4.367.873 4.04 4.04 0 0 0-.869 4.387 4 4 0 0 0 1.476 1.806 4 4 0 0 0 2.226.678 4 4 0 0 0 2.832-1.18A4.04 4.04 0 0 0 34 15.993z"/><path fill="#6366f1" d="M5.007 11.969c-.793 0-1.567.236-2.226.678a4 4 0 0 0-1.476 1.807 4.04 4.04 0 0 0 .869 4.386 4 4 0 0 0 4.366.873 4 4 0 0 0 1.798-1.483 4.04 4.04 0 0 0-.5-5.08 4 4 0 0 0-2.831-1.181"/></svg>